<?xml version="1.0" encoding="UTF-8" standalone="no"?>
<!-- Placeholder logo - replace with actual logos -->

<svg
   viewBox="0 0 100 100"
   class="w-full h-full"
   version="1.1"
   id="svg1"
   sodipodi:docname="powiat.svg"
   inkscape:version="1.4 (86a8ad7, 2024-10-11)"
   xmlns:inkscape="http://www.inkscape.org/namespaces/inkscape"
   xmlns:sodipodi="http://sodipodi.sourceforge.net/DTD/sodipodi-0.dtd"
   xmlns="http://www.w3.org/2000/svg"
   xmlns:svg="http://www.w3.org/2000/svg">
  <defs
     id="defs1" />
  <sodipodi:namedview
     id="namedview1"
     pagecolor="#ffffff"
     bordercolor="#000000"
     borderopacity="0.25"
     inkscape:showpageshadow="2"
     inkscape:pageopacity="0.0"
     inkscape:pagecheckerboard="0"
     inkscape:deskcolor="#d1d1d1"
     inkscape:zoom="2.38"
     inkscape:cx="-43.907563"
     inkscape:cy="-56.932773"
     inkscape:window-width="1920"
     inkscape:window-height="991"
     inkscape:window-x="-9"
     inkscape:window-y="-9"
     inkscape:window-maximized="1"
     inkscape:current-layer="svg1" />
  <g
     id="g63"
     transform="matrix(0.30171464,0,0,0.26064192,-34.781285,-16.047235)">
    <path
       id="path2"
       d="M 90.9502,542.0871 V 384.7513 c 0,-67.0377 54.3608,-121.4093 121.3976,-121.4093 67.0536,0 121.394,54.3716 121.394,121.4084 v 157.3367 z"
       style="fill:#20190e;fill-opacity:1;fill-rule:evenodd;stroke:none"
       transform="matrix(1.3333333,0,0,-1.3333333,0,793.7008)" />
    <path
       id="path3"
       d="M 329.995,538.3227 H 94.7174 V 384.7513 c 0,-64.971 52.6694,-117.6381 117.6304,-117.6381 64.9741,8e-4 117.6461,52.6663 117.6461,117.6372 l 10e-4,9e-4 v 153.5714 z"
       style="fill:#ed192d;fill-opacity:1;fill-rule:evenodd;stroke:none"
       transform="matrix(1.3333333,0,0,-1.3333333,0,793.7008)" />
    <path
       id="path4"
       d="m 316.9074,487.2302 c -2.5914,10.4381 -9.2035,23.0403 -20.9732,25.6335 -4.1417,1.313 -9.1996,0.6857 -13.2081,-0.4417 -5.2809,-1.893 -10.7163,-6.9548 -11.7045,-12.6198 -1.6225,-5.2847 -0.5213,-11.1138 2.0242,-15.5775 1.3462,-2.4611 3.8469,-4.455 4.5746,-7.1553 1.1809,-4.841 -3.9665,-7.5381 -6.9897,-10.294 -6.1495,-4.2925 -12.4807,-8.0781 -19.4802,-10.3453 -2.6728,-0.6109 -5.2195,-1.4485 -7.9643,-1.823 -0.7724,-0.0708 -1.5721,-0.3636 -2.3442,-0.102 -0.538,0.25 -0.7305,0.8025 -0.8513,1.3141 -0.322,3.7262 -1.4442,7.1229 -2.7447,10.4485 -0.3289,0.6217 -0.7657,1.215 -1.0225,1.8939 0.4496,0.4572 0.9641,-0.0545 1.4922,0.0244 l 0.0419,0.2743 c -3.1944,2.4988 -2.4327,6.7388 -4.3753,9.8173 -1.5678,3.4531 0.2713,7.3292 -0.3909,10.9633 -0.1236,0.6525 -0.6528,1.2186 -0.4019,1.8938 0.8172,0.0388 0.4252,-1.2422 1.2968,-1.1761 0.1313,0.148 0.2401,0.2636 0.2713,0.4564 -0.2704,2.6027 -0.1412,5.5754 -0.0896,8.3182 -0.5961,5.9599 -1.6602,11.757 -5.2874,16.4852 -1.3482,1.4814 -2.5535,3.1031 -4.2177,4.2605 -4.0697,3.1059 -9.8172,4.8741 -14.919,2.8306 -0.2648,-0.2803 -0.7005,-0.1315 -0.8754,0.2041 0.0309,0.713 -0.4671,1.3238 -1.0468,1.6614 -0.7577,0.4669 -1.5718,-0.2228 -2.3159,0 l -1.7538,1.4193 c -3.7293,3.0589 -7.1405,7.0461 -12.2462,6.7008 -3.1845,-0.4115 -5.48,-3.74 -6.3828,-6.4839 -1.5951,-3.5017 -1.4375,-7.9022 -1.3141,-11.861 0.1128,-0.9289 0.0924,-1.9406 0.6108,-2.6992 0.1168,-0.142 0.4388,-0.1695 0.5389,0.0533 0.1984,1.5166 0.4076,3.212 1.9726,3.9521 0.3813,0.0867 0.8308,0.0856 1.1293,-0.2109 2.3159,-3.0884 4.663,-6.1778 6.1144,-9.6287 3.4007,-5.9531 4.7729,-12.7628 8.8846,-18.4131 0.923,-1.3308 2.5943,-0.9028 3.5512,-2.1245 0.4017,-1.1789 0.2296,-2.6416 -0.4424,-3.634 -2.4163,-1.8315 -4.3237,-4.3166 -6.1464,-6.6637 -0.7549,-0.7849 -1.6537,-1.2694 -2.4874,-1.8218 -0.0377,-0.7949 0.8784,-0.1304 1.2557,-0.5488 0,-0.4601 -0.498,-0.5117 -0.7409,-0.7858 -2.7111,-2.0545 -4.8286,-4.6806 -5.9259,-7.6416 -1.3178,-2.3607 -1.8394,-5.0278 -3.6989,-7.1445 -0.1276,-1.0193 1.2518,0.0856 1.317,-0.8198 -0.3668,-0.5836 -1.0429,-0.6868 -1.5818,-0.9096 -7.3193,-0.2877 -13.9765,1.6438 -20.0743,4.6049 -3.6029,1.2702 -6.6396,3.8497 -9.9409,5.8439 -3.1836,2.3403 -6.6563,4.835 -9.0859,8.119 -2.1381,3.8605 1.4134,7.0064 3.5513,9.9263 2.9035,4.4862 3.8021,10.368 2.738,15.9308 -0.957,6.1327 -6.4333,11.8873 -12.4115,13.4864 -9.22,2.4803 -18.9791,0.1836 -25.1002,-7.4041 -5.8955,-7.2817 -8.7339,-15.8667 -9.5568,-25.2454 -0.3053,-7.5589 -0.4561,-15.5543 1.0361,-22.6131 0.6934,-7.9302 3.6164,-14.961 5.165,-22.5167 0.2537,-2.7695 1.1118,-5.2847 1.4335,-8.0365 l 3.3327,-15.8528 3.2456,-13.0371 c 0.9029,-3.1184 1.8219,-6.2515 2.9308,-9.265 2.9715,-8.6559 8.2145,-16.3265 10.4448,-25.2587 0.2472,-0.8084 -0.36,-2.285 0.7724,-2.3774 1.0846,0.752 1.9211,1.8082 2.8372,2.8346 4.0765,4.7934 4.5406,11.8454 3.3081,18.097 l -2.3947,12.2743 c -1.0222,5.127 -1.6711,10.4213 -2.3888,15.6642 l -2.4843,16.6436 -1.324,11.0829 -0.4357,6.4616 c 0.0924,0.0584 0.1508,0.1956 0.288,0.144 0.2265,-0.2392 0.2265,-0.5944 0.2265,-0.9096 l 2.0661,-15.9908 1.4094,-10.1804 c 0.8141,-5.3226 1.4346,-10.6792 2.3851,-15.9123 l 2.8032,-13.206 c 1.5553,-5.8751 1.8229,-12.2862 1.709,-18.847 0.0555,-0.3073 0.3776,-0.4252 0.6556,-0.3464 3.0544,2.0526 6.6016,4.3577 8.5618,7.6901 2.3644,4.9697 2.6932,11.0529 2.2575,16.8928 l -1.3793,21.8894 c -0.4221,6.6952 -1.0398,13.5168 -1.0018,20.1804 l 0.1236,0.3609 c 0.106,0.1499 0.2401,-0.0184 0.3121,-0.1001 -0.0448,-0.7344 0.0652,-1.455 0.1236,-2.1622 0.3773,-9.5528 1.3657,-18.8283 2.0863,-28.2479 0.5692,-9.4838 2.0582,-19.9635 -0.5145,-29.0126 0.0136,-0.2471 0.288,-0.3568 0.5417,-0.3152 3.74,2.5495 8.771,3.3044 11.1589,7.871 2.3034,3.9745 2.9415,8.6309 3.0815,13.4827 l 0.1137,15.5687 0.3084,19.4735 0.1341,0.21 c 0.1751,0.146 0.4008,-0.0527 0.4671,-0.21 l -0.0419,-2.9852 -0.1508,-18.2965 0.1508,-13.6372 c -0.0233,-3.8973 -0.4252,-7.6113 -1.4242,-11.073 -0.4697,-1.4201 -1.2526,-2.7011 -1.6886,-4.1456 0.0352,-0.2472 0.2648,-0.3773 0.5157,-0.3121 4.9617,2.4403 10.5032,4.979 13.7488,10.0508 1.7374,3.2116 2.8452,6.6909 3.3531,10.4417 0.5117,7.9849 0.6486,16.0659 0.8646,24.2464 0.114,1.103 -0.072,2.3508 0.3504,3.3188 0.0924,0.2197 0.3501,0.0816 0.3948,-0.0935 l -0.1031,-2.2808 -0.0556,-16.9415 c 0.114,-1.747 -0.102,-3.6309 0.7696,-5.0619 0.8813,-1.2517 1.9522,-2.9231 3.6612,-2.9367 1.8771,0.5732 3.5825,2.3474 4.2409,4.2069 0.1681,0.114 0.3501,-0.0212 0.4805,-0.1505 1.177,-2.0894 3.3217,-4.3548 5.9159,-4.0564 1.6019,0.326 2.4151,2.1002 2.8752,3.4592 0.3124,0.3812 0,1.1486 0.6761,1.2557 1.5678,-1.9318 3.4628,-4.3004 5.8711,-4.883 2.5875,0.2985 4.3169,3.0708 5.8303,4.9306 0.1684,0.0621 0.3912,0.0825 0.4669,-0.11 0.1644,-0.7945 0.6275,-1.4581 1.2724,-2.0554 1.3519,-1.3889 3.1845,-2.4015 5.1611,-1.7467 1.891,1.3014 2.6835,3.4217 4.0181,5.1307 0.1372,0.114 0.316,0 0.4016,-0.1097 0.186,-0.782 0.7373,-1.4076 1.1733,-2.0622 1.1942,-1.5505 2.7391,-3.202 4.7086,-3.2604 3.7877,1.7674 3.9901,6.1356 4.0105,9.934 l -0.4484,16.3851 0.2188,0.2537 c 0.1752,0.08 0.1304,-0.14 0.2676,-0.212 0.4016,-3.452 0.5077,-7.0353 0.7069,-10.6004 l 0.4709,-11.5467 c 0.4212,-4.6321 1.0009,-9.2066 2.6447,-13.3375 2.1042,-6.3411 8.9294,-9.5364 14.292,-12.117 0.2925,0.0136 0.3813,0.2608 0.4153,0.498 -2.5115,4.1933 -2.9231,9.2367 -3.1604,14.3533 l 0.1517,10.8473 -0.1205,19.5803 -0.0312,5.0851 0.2033,0.1916 c 0.1604,0.0215 0.2596,-0.0513 0.356,-0.1573 l 0.2577,-6.2351 0.1576,-19.4148 0.0935,-10.7609 c 0.3561,-3.5824 0.5621,-7.2 1.9687,-10.3399 1.9978,-5.5003 7.8758,-7.0277 12.2267,-9.4876 0.212,0.0409 0.5076,0.1849 0.4592,0.4561 l -0.754,3.0408 c -0.893,5.8887 -0.677,12.3018 -0.1965,18.303 l 0.9133,11.3105 c 0.6585,8.7778 1.5506,17.4481 1.7598,26.4387 l 0.1692,0.1313 c 0.1712,0.1984 0.2568,-0.1313 0.4045,-0.1965 -0.1137,-7.5928 -0.4705,-15.129 -1.2702,-22.4691 l -0.6273,-10.6509 -0.2812,-4.4977 c -0.2268,-6.5647 -1.1778,-13.8844 1.1866,-19.9032 1.5409,-3.808 5.3702,-6.8428 8.833,-8.905 0.326,-0.178 0.8853,-0.3365 1.1322,0.0408 l 0.0516,7.7562 c 0.1712,3.0262 0.7713,5.8918 1.252,8.7942 l 2.602,11.9106 c 1.9482,10.5993 3.2592,21.4673 4.769,32.2418 l 1.4658,11.1178 0.3123,3.0311 0.1849,0.212 c 0.1817,0.0825 0.25,-0.114 0.3597,-0.2132 -0.3218,-6.7563 -1.2558,-13.28 -2.1167,-19.8195 l -1.8459,-12.536 -1.0128,-7.5248 -1.9006,-11.2822 c -0.923,-6.592 -3.2468,-12.7035 -2.704,-19.7827 0.4941,-4.7146 2.7207,-8.8251 6.4916,-12.1158 0.2268,-0.0856 0.6733,-0.1069 0.6937,0.2539 0.4016,4.8558 2.6078,8.9527 4.3752,13.2412 6.2485,11.5302 9.7861,24.1677 12.6168,37.1285 l 2.3479,10.8292 c 0.648,2.986 1.2005,5.978 1.4746,9.0839 l 0.1451,0.1616 c 0.6381,3.0056 1.3374,5.98 2.1371,8.9175 2.2827,7.7009 3.9733,15.6575 4.8041,23.938 0.5874,7.4741 0.6242,15.4211 -1.0185,22.4311"
       style="fill:#20190e;fill-opacity:1;fill-rule:evenodd;stroke:none"
       transform="matrix(1.3333333,0,0,-1.3333333,0,793.7008)" />
    <path
       id="path5"
       d="m 240.376,336.5254 c -0.6081,-0.2296 -1.2702,-0.7072 -1.8947,-1.6508 -1.4202,-2.1204 -1.2217,-3.6037 -0.8065,-5.1444 0.2305,-0.892 0.5349,-1.7461 0.6937,-2.673 0.1644,-1.0049 0.178,-2.0895 -0.1928,-3.3149 -0.3569,-1.2109 -0.8957,-2.2606 -1.3586,-3.1495 -0.2364,-0.432 -0.474,-0.8825 -0.6693,-1.253 -0.1743,-0.3628 -0.3328,-0.7032 -0.4388,-1.0261 -0.1616,-0.4941 -0.7109,-0.7577 -1.1877,-0.5797 -0.6341,0.2197 -1.4307,0.2917 -2.5251,-0.0204 -2.4296,-0.7237 -3.2224,-2.001 -3.9053,-3.4659 -0.3977,-0.8297 -0.7209,-1.6807 -1.1906,-2.4948 -0.5212,-0.8668 -1.2149,-1.7121 -2.3062,-2.4015 -0.995,-0.6344 -2.0282,-1.0468 -2.916,-1.3929 -0.4329,-0.1645 -0.8416,-0.3269 -1.2121,-0.4845 -0.3637,-0.1468 -0.6653,-0.2988 -0.9298,-0.4564 -0.4496,-0.2741 -1.0292,-0.1332 -1.2937,0.3232 -0.3464,0.5593 -0.9193,1.1418 -1.9454,1.5882 -2.3363,1.0058 -3.7576,0.5633 -5.2195,-0.1236 -0.8297,-0.3869 -1.6333,-0.8305 -2.5086,-1.1389 -0.9706,-0.3393 -2.0271,-0.5426 -3.2936,-0.3813 -1.2625,0.1721 -2.3956,0.5525 -3.3528,0.8717 -0.4765,0.1749 -0.9162,0.3325 -1.3414,0.4637 -0.3705,0.1236 -0.7344,0.2228 -1.0533,0.2637 -0.5145,0.0799 -0.8785,0.57 -0.8065,1.0777 0.1264,0.6556 0.0544,1.4445 -0.4668,2.4775 -1.1146,2.2694 -2.5019,2.8482 -4.0522,3.2731 -0.8892,0.2316 -1.7713,0.3989 -2.6498,0.7345 -0.9746,0.3512 -1.9111,0.8889 -2.7896,1.8258 -0.8473,0.9054 -1.489,1.8938 -2.0446,2.7487 -0.2605,0.4329 -0.5153,0.8405 -0.7413,1.1974 -0.2401,0.3744 -0.4464,0.6556 -0.6689,0.8921 -0.3436,0.3909 -0.2988,0.9949 0.0924,1.3382 0.5077,0.4096 0.9609,1.0845 1.2285,2.1827 0.5834,2.4746 -0.0924,3.8024 -1.0264,5.1193 -0.25,0.3609 -0.5117,0.7141 -0.775,1.0749 -0.2676,0.3813 -0.5497,0.7753 -0.7725,1.2002 -0.504,0.8861 -0.8988,1.9018 -0.9572,3.1916 -0.0377,1.1534 0.1032,2.0894 0.2432,2.9987 0.1236,0.8181 0.2716,1.6166 0.2307,2.5671 0,0.5182 0.4006,0.9433 0.923,0.9433 0.6517,0.0117 1.4445,0.22 2.3499,0.8853 2.0526,1.5202 2.3811,2.9889 2.5183,4.5842 0.076,0.9105 0.0868,1.8366 0.2617,2.7595 0.1819,0.9882 0.5524,2.0174 1.3308,3.0396 0.7654,1.0029 1.6679,1.8014 2.4268,2.4571 0.3773,0.3336 0.7412,0.6352 1.0533,0.9368 0.3424,0.2889 0.5933,0.5358 0.7753,0.779 0.326,0.4153 0.9193,0.4737 1.3277,0.1508 0.4941,-0.428 1.2462,-0.7645 2.3607,-0.8365 2.5467,-0.1644 3.7304,0.7441 4.8734,1.8802 0.3149,0.3161 0.6069,0.6341 0.9229,0.9434 0.3288,0.3404 0.6653,0.6732 1.0398,0.9845 0.7752,0.6389 1.7189,1.1984 2.9647,1.5066 1.2422,0.282 2.251,0.3124 3.1944,0.3435 0.8784,0.003 1.743,0.0136 2.7451,0.2265 0.494,0.1004 1.0057,-0.2401 1.1021,-0.7585 0.1128,-0.6344 0.4493,-1.3726 1.2693,-2.1546 1.8491,-1.7431 3.3489,-1.8122 4.9479,-1.6614 0.9261,0.0864 1.8258,0.2267 2.7519,0.2168 1.0233,-0.007 2.1038,-0.1856 3.2184,-0.7829 1.0673,-0.5485 1.9534,-1.2353 2.7014,-1.8179 0.3734,-0.3084 0.7169,-0.5808 1.0466,-0.8416 0.2917,-0.2148 0.5797,-0.4221 0.8578,-0.5592 0.4563,-0.2569 0.6275,-0.8306 0.3628,-1.2935 -0.3084,-0.5624 -0.5281,-1.3482 -0.3937,-2.4775 0.2673,-2.5183 1.3821,-3.5271 2.7107,-4.4541 0.3569,-0.25 0.7413,-0.4765 1.101,-0.7304 0.392,-0.2645 0.7792,-0.5565 1.1429,-0.8646 0.7793,-0.6588 1.4786,-1.4893 1.9727,-2.6771 0.4952,-1.1865 0.6664,-2.2166 0.824,-3.1192 0.0856,-0.4428 0.1576,-0.8881 0.2781,-1.3385 0.0788,-0.4184 0.1984,-0.8609 0.3977,-1.3142 0.182,-0.4864 -0.0689,-1.0425 -0.5553,-1.2138 z m 14.2577,17.8439 c -0.4397,-0.0105 -0.8482,0.3248 -0.9241,0.7364 -0.1293,0.6293 -0.4425,1.2557 -1.0222,1.8706 -0.3424,0.388 -0.3152,0.9881 0.072,1.3345 1.7022,1.4834 4.0425,3.9257 3.6241,7.549 -0.2673,2.4162 -1.8363,3.1436 -4.0765,3.2848 -0.6866,0.0416 -1.0777,0.7197 -0.779,1.3374 0.4425,0.8793 0.6857,1.8082 0.5826,2.9715 -0.7685,8.1542 -13.6293,9.5335 -19.7924,4.0805 -0.3016,-0.2608 -0.7957,-0.2957 -1.1282,-0.076 -0.464,0.292 -1.0437,0.5216 -1.7362,0.6041 -0.5185,0.0759 -0.8892,0.5525 -0.824,1.0641 0.3364,2.2411 0.5796,5.6135 -2.0727,8.1289 -1.7637,1.6682 -3.4385,1.2178 -5.2195,-0.1264 -0.5487,-0.398 -1.2937,-0.1276 -1.4649,0.5349 -0.2228,0.9436 -0.6449,1.815 -1.4786,2.6487 -5.8195,5.7583 -16.6155,-1.4961 -17.7857,-9.652 -0.0584,-0.4328 -0.4464,-0.7724 -0.8849,-0.8064 -0.6177,-0.0136 -1.287,-0.2061 -1.9766,-0.6557 -0.4425,-0.2985 -1.0225,-0.1545 -1.2938,0.3056 -1.1701,1.9258 -3.1807,4.6562 -6.8116,4.8693 -2.429,0.1449 -3.4172,-1.2693 -3.9356,-3.4424 -0.1684,-0.6684 -0.8921,-0.9436 -1.4514,-0.5283 -0.7897,0.5731 -1.6818,0.9748 -2.8451,1.0709 -8.1326,0.6732 -11.7354,-11.7111 -7.4798,-18.7387 0.2333,-0.3668 0.1536,-0.8892 -0.1587,-1.1877 -0.4794,-0.4184 -0.8606,-0.9882 -1.1146,-1.8015 -0.1576,-0.5008 -0.6937,-0.7752 -1.1877,-0.6068 -2.1303,0.7168 -5.4287,1.523 -8.3594,-0.6489 -1.9551,-1.4309 -1.7878,-3.1671 -0.7917,-5.161 0.2948,-0.6208 -0.0865,-1.2977 -0.779,-1.3414 -0.9708,-0.0652 -1.9085,-0.3229 -2.8519,-0.9961 -6.6912,-4.7174 -1.4377,-16.5872 6.3788,-19.1679 0.3637,-0.144 0.6352,-0.5417 0.6352,-0.9396 -0.0312,-0.5486 0.0689,-1.1399 0.3393,-1.7879 0.2064,-0.4804 -0.0448,-1.0465 -0.5213,-1.2322 -2.0999,-0.8124 -5.1406,-2.3122 -5.9947,-5.8606 -0.5728,-2.3567 0.6761,-3.5892 2.7139,-4.4646 0.6185,-0.2772 0.7654,-1.0564 0.2617,-1.527 -0.6897,-0.678 -1.2529,-1.4825 -1.531,-2.6011 -2.0962,-7.946 9.5839,-13.6536 17.24,-10.5925 0.3949,0.1653 0.8986,0 1.1322,-0.3571 0.3393,-0.5349 0.8404,-1.0126 1.5718,-1.3726 0.4561,-0.2429 0.6273,-0.8169 0.3872,-1.2829 -1.0809,-1.9695 -2.4571,-5.0823 -0.8161,-8.335 1.0845,-2.1827 2.806,-2.3267 4.9479,-1.6886 0.6655,0.1899 1.2557,-0.3189 1.1837,-0.999 -0.0961,-0.9501 0,-1.921 0.4808,-2.988 3.482,-7.3904 16.0075,-4.314 19.9771,2.9024 0.2101,0.3813 0.6894,0.5661 1.0951,0.436 0.6108,-0.1984 1.3033,-0.2472 2.1274,-0.0547 0.5144,0.1208 1.0329,-0.2089 1.1253,-0.7237 0.4357,-2.2127 1.3833,-5.4703 4.735,-6.9284 2.2102,-0.9533 3.6312,0.0476 4.8694,1.8938 0.3704,0.5808 1.1633,0.5797 1.5545,0 0.5388,-0.7917 1.2186,-1.489 2.2819,-1.9726 7.4361,-3.4209 15.0638,7.0208 13.4212,15.0806 -0.072,0.4019 0.144,0.8348 0.5105,1.0264 0.4708,0.2236 0.9368,0.6145 1.3793,1.1738 0.2985,0.4224 0.9094,0.504 1.3385,0.1675 1.747,-1.4028 4.5502,-3.2799 8.0606,-2.2606 2.3296,0.7002 2.7655,2.3743 2.5087,4.5842 -0.0867,0.6829 0.5349,1.1906 1.1866,1.0021 0.9269,-0.2637 1.9046,-0.3436 3.0231,-0.0341 7.9334,2.1515 7.0249,15.1319 0.5457,20.2281 -0.3328,0.2684 -0.4524,0.782 -0.2472,1.1661 0.2892,0.5429 0.4292,1.2053 0.4088,2.0418 -0.0204,0.5222 0.3841,0.965 0.9054,0.9786 2.2342,0.0416 5.6077,0.4152 7.6317,3.4548 1.3425,2.0319 0.6004,3.5864 -1.0154,5.127 -0.5077,0.4709 -0.3744,1.2518 0.2645,1.5274 0.8852,0.3948 1.671,0.953 2.3434,1.9111 4.6601,6.7155 -4.2829,16.0282 -12.4934,15.8471"
       style="fill:#20190e;fill-opacity:1;fill-rule:evenodd;stroke:none"
       transform="matrix(1.3333333,0,0,-1.3333333,0,793.7008)" />
    <path
       id="path6"
       d="m 209.355,474.6895 c 2.0319,0.8433 3.0989,2.9772 3.9229,4.7718 0.0952,0 0.1817,-0.007 0.2401,-0.106 -0.4709,-2.7176 0.322,-5.2818 2.251,-7.1444 0.9365,-0.5837 1.887,0.0963 2.6728,0.6069 1.6886,1.781 3.2363,3.74 3.9464,5.9714 h 0.2021 c 0.3639,-0.7032 0.144,-1.603 0.5488,-2.2722 1.1602,-2.7275 4.1249,-3.6369 6.692,-4.1514 1.173,-0.3472 2.2371,-1.1809 3.3965,-1.2869 -0.065,0.8473 -0.889,1.4922 -1.1594,2.285 -0.707,3.062 -2.6943,5.5763 -2.7868,8.8739 0.4221,3.5481 1.4726,7.8406 -0.072,11.2158 -0.1644,0.614 -1.2594,1.2317 -0.4804,1.7782 0.6585,-0.0788 1.3113,-0.4493 1.8938,-0.8549 l 0.0828,0.0796 c -0.7033,2.9268 -0.1888,6.1923 -1.2246,8.9867 -0.9581,3.9444 -2.0866,7.8177 -4.7701,11.0713 -2.4883,3.3772 -6.1455,4.9997 -9.9652,5.6534 -2.1858,0.0981 -4.8314,0.3433 -5.8848,-1.7606 -0.8024,-2.6411 2.416,-3.64 3.9121,-4.9229 2.4948,-1.099 5.4015,-2.5524 6.7425,-5.2867 1.1809,-2.4959 2.4095,-5.051 2.4707,-7.9517 l -0.1468,0.001 c -0.5837,0.5709 -0.8306,1.8751 -1.9259,1.8751 -1.6877,-1.0377 -3.6125,-1.809 -5.7302,-1.4734 -2.7488,0.4357 -4.0765,3.4461 -4.5394,5.8303 -0.2373,1.7439 0.1984,3.4736 0.6341,5.0647 -0.1984,0.5876 -0.8201,0.7908 -1.3346,0.9252 -0.8849,-0.9729 -0.7237,-2.391 -0.9541,-3.6476 -0.0301,-4.2293 1.6546,-7.7378 3.9121,-11.0121 1.4717,-2.3762 1.6438,-5.976 0.0788,-8.3522 -0.5281,-2.2131 -4.1689,-1.8318 -3.1808,-4.4677 0.4564,-2.1399 -0.2576,-4.1242 -2.1447,-5.3283 -2.5387,-1.643 -2.8383,-4.8178 -5.6619,-5.9987 -0.0964,-0.0952 -0.1644,-0.2713 -0.0448,-0.3841 2.986,-0.1644 5.906,0.2537 8.407,1.4114"
       style="fill:#ffffff;fill-opacity:1;fill-rule:evenodd;stroke:none"
       transform="matrix(1.3333333,0,0,-1.3333333,0,793.7008)" />
    <path
       id="path7"
       d="m 212.917,510.4466 c -0.3571,0.1496 -0.7616,0.7752 -1.1284,0.2392 -0.4017,-1.8258 -0.5525,-4.1049 0.3123,-5.7671 0.5729,-0.7957 1.3655,-1.5281 2.2819,-1.7218 1.6779,-0.6077 3.174,0.2628 4.3674,1.3649 0.0584,0.6738 -0.3288,1.1398 -0.5757,1.6711 -0.4604,0.1097 -0.4261,-0.4445 -0.7141,-0.6033 -0.8201,-0.8557 -1.8638,-1.6806 -3.0776,-1.1282 -2.5154,0.9514 -1.3357,3.9005 -1.4658,5.9452"
       style="fill:#ffffff;fill-opacity:1;fill-rule:evenodd;stroke:none"
       transform="matrix(1.3333333,0,0,-1.3333333,0,793.7008)" />
    <path
       id="path8"
       d="m 186.7456,451.8292 c -11.7286,0.7481 -21.8622,5.3555 -31.1338,12.0711 -3.5648,2.8063 -8.1909,5.5006 -9.7931,9.9303 -1.2665,4.053 0.9573,7.5625 3.1399,10.6441 2.8452,5.5871 3.4317,14.1457 -0.1031,19.62 -0.6761,1.2441 -1.6234,2.4698 -2.8276,3.4075 -4.913,3.9937 -12.5419,3.8976 -18.0453,1.2586 -8.8359,-4.2137 -13.218,-13.4844 -15.1946,-22.155 -2.4024,-9.0684 -1.4754,-19.7175 -0.1885,-28.9987 0.6826,-7.2641 2.9648,-13.8493 4.3021,-20.7845 0.1341,-0.47 -0.0788,-1.0982 0.2713,-1.4865 0.3229,-0.068 0.6421,0.1344 0.9028,0.3027 1.5583,1.5271 2.0416,3.4685 2.5736,5.4352 1.4718,5.9879 -0.1032,12.1442 -0.388,18.2557 l -0.1576,10.5449 0.1576,0.2091 c 0.1584,0.0137 0.244,-0.0447 0.3568,-0.1655 0.4873,-5.98 0.9301,-11.8171 2.1586,-17.4997 0.6693,-3.1873 0.8822,-6.6268 3.3596,-9.0255 0.7577,-0.4416 1.6158,-1.0633 2.5388,-0.6613 3.634,2.8139 2.8763,7.6102 3.4072,11.7734 0.0896,1.493 0.2608,3.0708 -0.1604,4.4674 -1.1158,2.5183 -2.6672,4.8481 -3.5969,7.4489 -0.0992,-0.0125 -0.2257,0.0448 -0.3124,-0.0408 -0.3393,-1.317 -0.1752,-2.6252 -0.3393,-3.9694 l -0.1996,-12.2269 -0.1576,-0.353 c -0.1604,-0.0204 -0.2636,0.0409 -0.3569,0.1508 -0.3979,2.7321 -0.4767,5.5968 -0.7208,8.369 0,10.8786 -0.5309,22.1772 3.202,31.6075 -1.4442,0.3912 -2.8448,1.461 -3.5824,2.8383 -0.8714,1.6302 -0.8334,3.9337 0.1199,5.5154 1.3382,2.1467 3.6621,3.0328 6.1044,2.6359 0.5768,1.889 2.499,3.4393 4.4065,3.7449 2.2166,0.3801 4.1309,-0.5984 5.483,-2.2743 1.1157,-1.5845 1.3354,-4.0357 0.5009,-5.805 1.1537,-0.8694 1.8091,-2.0243 2.1282,-3.2692 0.4593,-2.2567 -0.3191,-4.2954 -2.0766,-5.7195 -1.5954,-1.2421 -4.2993,-1.5758 -6.1007,-0.5117 -0.4465,-0.3948 -0.4085,-1.0941 -0.7549,-1.5786 -0.8685,-3.4268 -1.7158,-7.0888 -1.211,-10.9117 0.2637,-4.7865 3.0532,-8.6227 6.736,-11.9106 10.9077,-9.045 24.1838,-12.3706 37.8822,-14.7002 2.2995,-0.3123 4.496,-0.824 6.9627,-0.7548 l 0.3501,0.2919 0.6421,3.8634 c -0.0448,0.148 -0.0652,0.4153 -0.2852,0.4164"
       style="fill:#ffffff;fill-opacity:1;fill-rule:evenodd;stroke:none"
       transform="matrix(1.3333333,0,0,-1.3333333,0,793.7008)" />
    <path
       id="path9"
       d="m 306.661,500.5046 c -2.4162,4.0192 -6.4723,7.2241 -10.69,8.6803 -5.8739,2.0378 -13.1108,1.3685 -17.6405,-3.1029 -4.7691,-4.7029 -5.8811,-12.3786 -3.5689,-18.5734 1.2294,-3.7264 5.3119,-6.2935 5.6824,-10.3672 0.9785,-5.7943 -4.5871,-9.3503 -8.4651,-12.7403 -9.3195,-6.794 -19.3635,-11.863 -31.068,-12.8891 l -0.3257,-0.2636 c -0.0516,-1.0182 0.3257,-1.9979 0.2568,-3.0853 l 0.2985,-0.3492 c 7.014,0.2189 13.4756,1.7255 19.8819,3.348 3.4424,1.2918 7.0685,2.0486 10.4077,3.5932 3.3735,1.6203 6.842,2.9821 9.9924,5.1191 5.2361,3.3704 9.7824,8.5005 10.294,14.7489 0.4056,4.1565 -0.7101,8.1738 -1.9763,11.8931 -1.2217,-0.5145 -2.9747,-0.6001 -4.1964,-0.1165 -1.8595,0.6281 -3.4112,2.4707 -3.6893,4.3577 -0.3396,2.2603 0.5865,4.2273 2.351,5.5375 l -0.4152,0.955 c -0.7509,2.3054 0.072,4.6241 1.9355,6.1407 1.5233,1.2188 4.0144,1.565 5.7914,0.6644 1.497,-0.6789 2.7528,-2.283 3.0884,-3.8577 1.6098,0.1769 2.9239,-0.3872 4.0977,-1.2081 1.6305,-1.3433 2.3298,-3.2655 1.9931,-5.3342 -0.243,-2.0243 -2.0512,-3.8793 -3.9325,-4.455 1.7674,-4.9209 3.0651,-10.0403 3.2332,-15.6342 l 0.0243,-10.1352 c -0.2616,-4.5066 -0.4368,-9.0567 -1.0028,-13.4485 -0.0953,-0.0615 -0.1645,-0.1955 -0.3153,-0.1508 -0.1573,0.072 -0.0513,0.2433 -0.1584,0.3082 l -0.1956,10.2503 -0.2052,5.7303 -0.2061,0.3024 c -0.1332,-0.0136 -0.2852,0.0544 -0.3297,-0.1207 -0.9368,-2.5835 -2.3882,-4.9587 -3.5651,-7.439 -0.4629,-3.3939 0.1548,-6.9695 0.3912,-10.3876 0.4016,-1.8586 0.6284,-3.7845 2.131,-5.1882 0.5525,-0.6897 1.4106,-0.8881 2.244,-0.6925 1.212,0.4969 2.1546,1.7362 2.6934,2.878 2.7255,7.5189 3.25,16.0183 3.8569,24.3397 0.0416,0.106 0.1408,0.3367 0.3404,0.2715 0.11,-0.034 0.1681,-0.1235 0.2021,-0.21 l -0.034,-7.202 c 0.0204,-7.0685 -1.9979,-13.9873 -0.817,-21.0421 l 1.4106,-3.9493 c 0.5933,-0.8849 1.1497,-2.2654 2.3947,-2.4023 0.498,0.2304 0.3053,0.8889 0.3432,1.383 1.3658,8.3146 4.2789,16.0075 4.5601,24.7958 0.4913,2.7723 0.3569,5.8643 0.5185,8.7194 -0.5185,10.9525 -1.7637,21.5898 -7.6173,30.3284"
       style="fill:#ffffff;fill-opacity:1;fill-rule:evenodd;stroke:none"
       transform="matrix(1.3333333,0,0,-1.3333333,0,793.7008)" />
    <path
       id="path10"
       d="m 215.189,506.5549 c -0.0864,1.0785 0.792,1.8022 0.4076,2.99 -0.1264,0.2636 -0.3288,0.5669 -0.7129,0.4337 -0.6284,-0.4037 -0.9093,-1.0954 -0.9093,-1.8159 -0.0343,-0.6908 -0.0352,-1.3941 0.6069,-1.7294 0.2236,-0.0496 0.426,-0.1576 0.6077,0.1216"
       style="fill:#ffffff;fill-opacity:1;fill-rule:evenodd;stroke:none"
       transform="matrix(1.3333333,0,0,-1.3333333,0,793.7008)" />
    <path
       id="path11"
       d="m 221.2452,474.0259 c -0.8229,-1.0398 -1.6021,-2.3091 -2.8791,-2.9472 -0.3668,-0.2985 -1.0633,0 -1.2901,-0.4357 1.177,-1.2353 1.287,-3.1671 2.9892,-3.8676 3.2867,-0.9054 4.3197,3.5689 7.0852,4.3645 0.0895,0.076 0.0652,0.216 0,0.2852 -1.1906,0.3433 -2.3432,0.7169 -3.352,1.5406 l -0.8442,0.9474 c -0.0924,0.1916 -0.2987,0.1916 -0.4087,0.068 -0.4017,-1.2214 -0.4317,-2.5696 -0.957,-3.7088 -0.1276,-0.0582 -0.1721,0.106 -0.2645,0.1683 l 0.1069,3.3489 z"
       style="fill:#ffffff;fill-opacity:1;fill-rule:evenodd;stroke:none"
       transform="matrix(1.3333333,0,0,-1.3333333,0,793.7008)" />
    <path
       id="path12"
       d="m 211.3869,473.9131 h -0.2064 c -0.9637,-0.927 -2.3196,-1.0262 -3.5036,-1.5066 -0.4901,-0.1781 -1.0738,-0.0409 -1.527,-0.3124 0.32,-0.5729 1.0681,-0.7682 1.4961,-1.3139 0.8589,-0.9436 0.9513,-2.5058 2.2683,-2.9891 1.6923,-0.1916 3.0231,0.9366 4.0601,2.2926 0.2741,0.3949 0.8742,0.5758 1.0737,0.995 -0.7928,0.4629 -1.5817,1.1078 -2.1311,1.887 -0.1712,0.3124 -0.2715,0.7277 -0.4943,0.9094 -0.3909,-0.2197 -0.3909,-0.6934 -0.4765,-1.0573 -0.3093,-0.5446 -0.3745,-1.2762 -0.9162,-1.6331 -0.1712,0.9573 0.5213,1.781 0.3569,2.7284"
       style="fill:#ffffff;fill-opacity:1;fill-rule:evenodd;stroke:none"
       transform="matrix(1.3333333,0,0,-1.3333333,0,793.7008)" />
    <path
       id="path13"
       d="m 192.9739,458.6156 c 2.9472,1.5106 7.2884,1.5574 8.4722,5.4695 0.6965,2.4335 1.4482,4.8381 2.1855,7.2612 -0.144,0.2741 -0.5281,0.3365 -0.7101,0.1468 -1.1429,-1.5749 -2.6359,-2.9882 -3.3936,-4.7177 -0.2648,-0.2605 -0.3433,-0.7409 -0.7521,-0.8197 -0.1848,0.1644 -0.0272,0.24 -0.0856,0.4249 0.5868,1.4105 1.2734,2.8034 1.7878,4.2624 0.0341,0.1925 -0.178,0.3493 -0.4084,0.3053 -4.3033,-3.0376 -5.9607,-7.4945 -7.9954,-11.6186 -0.1196,-0.3844 -0.6313,-0.6528 -0.4768,-1.0681 0.4776,-0.0505 0.9164,0.2404 1.3765,0.354"
       style="fill:#ffffff;fill-opacity:1;fill-rule:evenodd;stroke:none"
       transform="matrix(1.3333333,0,0,-1.3333333,0,793.7008)" />
    <path
       id="path14"
       d="m 207.3348,456.4845 c 1.6642,0.529 2.9131,2.0175 4.4538,2.882 0.7305,0.7861 1.9142,1.4621 1.7294,2.6428 -0.7314,0.2335 -1.1945,1.0672 -1.7294,1.6157 -0.711,0.7557 -0.4505,2.3647 -1.8159,2.4095 -0.9641,-1.1634 -1.3309,-2.6459 -1.9834,-3.9736 -0.1604,-0.1645 -0.3637,0.0303 -0.3433,0.216 0.1653,1.2877 0.6185,2.5086 0.9513,3.7576 -0.2744,1.1497 -0.862,2.1515 -1.4349,3.194 -0.532,0.6897 -1.1945,1.5137 -1.921,1.9562 -1.0097,-2.9676 -1.9599,-6.122 -1.6954,-9.5879 0.0992,-1.8723 1.1769,-3.3624 2.3706,-4.8002 0.3949,-0.2596 0.8889,-0.498 1.4182,-0.3121"
       style="fill:#ffffff;fill-opacity:1;fill-rule:evenodd;stroke:none"
       transform="matrix(1.3333333,0,0,-1.3333333,0,793.7008)" />
    <path
       id="path15"
       d="m 230.754,468.9476 c 0.8445,-2.0106 1.8015,-3.9464 2.5799,-5.9703 -0.0128,-0.11 -0.1917,-0.2648 -0.2909,-0.1519 -1.3493,2.1758 -2.461,4.4608 -3.562,6.7467 -0.1276,0.0621 -0.4292,0.0992 -0.5148,-0.1168 -0.3608,-2.4843 -0.8645,-5.3702 -0.1165,-7.8585 0.8742,-3.1144 4.4842,-2.734 6.6736,-4.2505 0.6594,-0.2821 1.177,-0.8861 1.8363,-1.1809 0.1548,0.072 0.2636,0.2267 0.2296,0.4115 -1.0221,1.8394 -1.2529,4.0221 -1.7186,6.0948 -0.7861,2.6731 -1.5069,6.3275 -4.8665,6.9897 -0.353,-0.0893 -0.2228,-0.4329 -0.2501,-0.7138"
       style="fill:#ffffff;fill-opacity:1;fill-rule:evenodd;stroke:none"
       transform="matrix(1.3333333,0,0,-1.3333333,0,793.7008)" />
    <path
       id="path16"
       d="m 215.1026,469.2297 -0.2189,0.0312 c -0.6528,-0.6421 -1.1741,-1.4358 -1.925,-2.0767 -0.3121,-0.3708 -0.9785,-0.2239 -1.0573,-0.7628 0.6585,-0.8977 0.6585,-2.1067 1.6166,-2.8956 0.4221,-0.3668 1.002,-0.3501 1.5846,-0.4017 1.2325,0.0525 2.169,1.3042 2.8763,2.2343 0.0992,0.3841 0.6993,0.4317 0.6137,0.9093 -0.7577,0.3776 -1.1906,1.1458 -1.5166,1.8394 -0.2129,0.2977 -0.2673,0.8405 -0.6729,0.9533 -0.7401,-1.1321 -0.8065,-2.639 -1.3005,-3.9112 -0.0953,0 -0.2189,-0.042 -0.2676,0.0652 -0.1438,1.3618 0.46,2.6107 0.2676,4.0153"
       style="fill:#ffffff;fill-opacity:1;fill-rule:evenodd;stroke:none"
       transform="matrix(1.3333333,0,0,-1.3333333,0,793.7008)" />
    <path
       id="path17"
       d="m 224.6769,458.8217 c 2.3295,2.4775 2.0378,6.1387 2.3674,9.4839 -0.0379,0.2004 -0.2675,0.3124 -0.4424,0.3977 -0.8893,-0.3977 -1.6373,-1.2586 -2.2958,-2.0347 -0.6721,-0.6305 -1.6506,-0.7549 -2.1623,-1.6226 l -0.8986,-4.1853 -0.3707,-0.5077 c -0.1508,0.0776 -0.1508,0.212 -0.2129,0.3421 l 0.0621,4.0632 -0.2577,0.2888 c -0.4221,0.1809 -0.851,-0.0527 -1.2149,-0.2032 -0.7577,-0.8921 -1.4171,-1.9766 -2.4356,-2.6294 -0.6449,-0.3424 -1.3969,-0.3637 -1.9805,-0.7577 -0.1885,-0.7305 -0.1574,-1.6331 0.46,-2.1691 1.5681,-1.0253 2.8007,-2.7691 4.5085,-3.5104 2.1555,-0.2908 3.4424,1.781 4.8734,3.0444"
       style="fill:#ffffff;fill-opacity:1;fill-rule:evenodd;stroke:none"
       transform="matrix(1.3333333,0,0,-1.3333333,0,793.7008)" />
    <path
       id="path18"
       d="m 198.9714,458.0019 c -1.4649,-2.8043 -1.4958,-6.2319 -2.2887,-9.3175 -0.5213,-2.491 -0.034,-5.1777 2.2167,-6.588 0.4573,-0.3084 1.0437,-0.1304 1.493,0.038 4.3685,2.0863 5.1466,6.9829 4.9238,11.5603 -0.4249,1.2325 -1.4998,2.1897 -2.2507,3.3043 -0.2061,0.0896 -0.5077,0.2608 -0.714,0.0488 -0.4737,-1.8978 -0.8714,-3.7996 -1.2082,-5.7311 -0.1369,-0.2152 -0.106,-0.5769 -0.4005,-0.6276 -0.0896,0.0507 -0.0896,0.1372 -0.1616,0.2188 0.0964,2.5739 0.6041,5.137 0.5621,7.6561 -0.1709,1.8842 -1.5814,-0.062 -2.1719,-0.5621"
       style="fill:#ffffff;fill-opacity:1;fill-rule:evenodd;stroke:none"
       transform="matrix(1.3333333,0,0,-1.3333333,0,793.7008)" />
    <path
       id="path19"
       d="m 225.5794,442.1344 c 0.6489,0.0757 1.2762,0.1712 1.7294,0.6761 4.1448,3.0161 2.1654,8.867 1.5409,12.9668 -0.398,1.0369 -0.2199,2.7419 -1.6993,2.8831 -2.1167,-1.3997 -1.1662,-4.3237 -1.609,-6.5375 -0.1857,-0.8745 0.1128,-1.9114 -0.2713,-2.6827 -0.0992,0 -0.2228,-0.0244 -0.2987,0.0992 -0.1642,2.0729 -0.2741,4.1893 -0.2945,6.3243 -0.038,0.1063 -0.1645,0.2569 -0.3093,0.2192 -1.0769,-1.0253 -2.4911,-1.4621 -3.6031,-2.4843 -0.7926,-1.2422 -0.5902,-2.9512 -0.5485,-4.4813 0.422,-2.9239 2.3499,-6.0463 5.3634,-6.9829"
       style="fill:#ffffff;fill-opacity:1;fill-rule:evenodd;stroke:none"
       transform="matrix(1.3333333,0,0,-1.3333333,0,793.7008)" />
    <path
       id="path20"
       d="m 210.56,441.2259 c 1.7363,-1.0613 3.1156,0.8705 4.4229,1.8655 2.5019,3.0379 3.7157,6.8632 3.1496,10.9049 -0.8297,1.4417 -2.4151,2.6427 -3.7945,3.562 -0.2471,0.0992 -0.6012,0.0488 -0.6284,-0.2812 l -1.0046,-7.7377 c -0.1451,-0.1917 -0.0312,-0.5905 -0.4087,-0.5729 -0.1097,0.0215 -0.1653,0.14 -0.1954,0.2268 -0.0351,2.8927 -0.0351,5.8223 0.1954,8.547 l -0.3161,0.0485 c -0.9706,-0.9298 -2.0659,-1.8394 -3.2117,-2.4191 -1.3104,-0.9258 -1.7297,-2.3372 -1.7841,-3.8577 -0.1001,-3.8976 -0.2236,-8.4722 3.5756,-10.2861"
       style="fill:#ffffff;fill-opacity:1;fill-rule:evenodd;stroke:none"
       transform="matrix(1.3333333,0,0,-1.3333333,0,793.7008)" />
    <path
       id="path21"
       d="m 194.2024,448.5997 c 1.6642,2.6342 2.1271,5.737 2.7204,8.7902 -0.0204,0.2481 -0.2809,0.3504 -0.5417,0.3056 -1.1565,-0.7305 -1.8014,-2.0214 -2.3782,-3.1904 -0.7101,-0.8617 -0.5661,-2.1175 -1.6302,-2.7351 l -0.1021,0.1437 c 0.4385,1.8014 1.3589,3.3939 1.9318,5.1341 -0.0623,0.1196 -0.1995,0.0992 -0.3092,0.0992 -2.6011,-0.9805 -3.744,-3.782 -4.6157,-6.1047 -0.8949,-1.8978 0.0136,-4.3305 -0.9025,-6.2215 l 0.1856,-0.1916 c 2.145,0.6352 4.1485,2.1234 5.6418,3.9705"
       style="fill:#ffffff;fill-opacity:1;fill-rule:evenodd;stroke:none"
       transform="matrix(1.3333333,0,0,-1.3333333,0,793.7008)" />
    <path
       id="path22"
       d="m 233.3347,456.3298 c -0.2064,0.1003 -0.6216,0.0623 -0.6528,-0.2469 0.6284,-1.681 1.6305,-3.2216 1.8802,-5.0814 -0.0408,-0.0924 -0.1332,-0.1928 -0.2704,-0.148 -0.5485,0.8413 -0.9578,1.7226 -1.1943,2.6935 -0.6624,1.0749 -0.8404,2.7828 -2.3918,3.0299 -0.2744,-0.1159 -0.288,-0.4252 -0.4017,-0.6412 -0.1091,-1.7742 0.5153,-3.3771 1.033,-4.9762 0.9201,-3.1048 3.8332,-5.3866 6.5675,-6.9517 0.2061,-0.1023 0.5389,-0.072 0.6245,0.2129 -0.8773,4.379 0.0448,10.2016 -5.1942,12.1091"
       style="fill:#ffffff;fill-opacity:1;fill-rule:evenodd;stroke:none"
       transform="matrix(1.3333333,0,0,-1.3333333,0,793.7008)" />
    <path
       id="path23"
       d="m 140.1265,439.187 c 3.4415,2.0009 2.8686,6.3751 2.745,9.8923 -0.5048,0.7937 -1.387,1.5301 -2.2167,1.963 -0.2063,0.1205 -0.6216,0.2061 -0.7696,-0.0408 -0.4453,-1.709 -0.072,-3.7993 -0.3801,-5.457 -0.1996,-0.1468 -0.3436,0.0556 -0.4876,0.186 -0.3568,2.2303 -0.2916,4.6561 -0.6689,6.8864 -0.216,0.6325 -0.8825,1.0778 -1.4174,1.4145 -0.7208,0.3053 -1.3249,1.5707 -2.1719,1.025 -0.1615,-0.4345 -0.1196,-1.0318 -0.0379,-1.5094 0.4736,-4.2197 0.6964,-8.5538 2.4811,-12.2298 0.6245,-1.0222 1.5477,-2.2915 2.924,-2.1302"
       style="fill:#ffffff;fill-opacity:1;fill-rule:evenodd;stroke:none"
       transform="matrix(1.3333333,0,0,-1.3333333,0,793.7008)" />
    <path
       id="path24"
       d="m 286.3358,439.1385 c 1.201,0.0485 1.8879,1.3178 2.4811,2.1787 1.929,4.0601 2.1382,8.8155 2.5467,13.4824 0,0.3232 -0.3572,0.4604 -0.6177,0.4604 -1.1157,-0.9709 -2.8179,-1.5313 -3.3015,-3.0719 l -0.2633,-4.5737 c -0.038,-0.7818 -0.0216,-1.603 -0.5497,-2.1419 l -0.1547,0.1004 -0.1409,5.195 c -0.0992,0.2648 -0.3912,0.4805 -0.7237,0.394 -0.9465,-0.4836 -2.0622,-1.2421 -2.5291,-2.2303 -0.1332,-2.145 -0.2432,-4.5153 0.3093,-6.4752 0.398,-1.3716 1.3861,-3.0951 2.9435,-3.3179"
       style="fill:#ffffff;fill-opacity:1;fill-rule:evenodd;stroke:none"
       transform="matrix(1.3333333,0,0,-1.3333333,0,793.7008)" />
    <path
       id="path25"
       d="m 148.447,446.3938 c -0.5281,0.9949 -1.7226,1.207 -2.7587,1.385 -0.2333,-0.0788 -0.3597,-0.178 -0.4357,-0.3569 -0.1924,-3.6465 -0.1411,-7.3913 1.9182,-10.2152 0.8062,-0.7549 1.8083,-1.2694 2.9172,-0.9502 2.6008,1.7331 2.7448,4.9683 2.6076,8.0498 0.1235,0.9369 -0.851,1.0914 -1.421,1.5203 -0.4697,0.1199 -1.067,0.5011 -1.5407,0.2123 -0.3056,-1.4369 -0.2676,-3.0436 -0.3639,-4.5709 l -0.2121,-0.4961 c -0.1032,-0.1236 -0.2752,-8e-4 -0.3433,0.1021 -0.4736,1.6954 -0.1167,3.5892 -0.3676,5.3198"
       style="fill:#ffffff;fill-opacity:1;fill-rule:evenodd;stroke:none"
       transform="matrix(1.3333333,0,0,-1.3333333,0,793.7008)" />
    <path
       id="path26"
       d="m 277.1575,441.0264 c -0.0652,-0.1304 -0.2376,-0.1313 -0.3096,-0.0553 -0.4425,1.4862 -0.1848,3.2496 -0.4045,4.7973 -0.038,0.2713 -0.288,0.4902 -0.5592,0.4697 -0.9777,-0.3288 -2.1107,-0.6652 -2.5807,-1.6089 -0.0621,-3.0368 -0.2577,-6.156 2.1314,-8.119 0.6001,-0.4728 1.5854,-0.6556 2.2779,-0.2537 3.3111,2.5084 3.1399,6.8797 3.092,10.891 0.0139,0.4669 -0.4121,0.6449 -0.7965,0.6313 -0.9261,-0.3461 -2.0931,-0.4765 -2.5631,-1.493 -0.1233,-1.6566 0.1032,-3.5105 -0.1885,-5.1262 z"
       style="fill:#ffffff;fill-opacity:1;fill-rule:evenodd;stroke:none"
       transform="matrix(1.3333333,0,0,-1.3333333,0,793.7008)" />
    <path
       id="path27"
       d="m 192.9291,426.0509 c 0.9641,-0.3668 1.6886,0.3909 2.3811,0.9202 2.4163,3.2731 2.4299,7.5112 2.882,11.6257 l -0.1225,1.6126 c -0.7653,0.9785 -1.8226,1.925 -2.4811,2.9948 -0.2512,0.148 -0.5148,-0.0504 -0.6421,-0.2089 -0.5244,-2.2635 -0.7441,-4.6293 -1.3657,-6.8459 -0.1168,-0.112 -0.1984,-0.0857 -0.288,0.0379 0.106,2.7771 0.3367,5.662 0.6004,8.4419 -0.0411,0.1304 -0.1917,0.212 -0.3124,0.2296 -1.4893,-0.9533 -3.2664,-1.5718 -4.413,-3.0268 -0.4428,-2.6275 -0.4428,-5.6174 -0.212,-8.3206 0.3909,-2.8763 0.8782,-6.2767 3.9733,-7.4605"
       style="fill:#ffffff;fill-opacity:1;fill-rule:evenodd;stroke:none"
       transform="matrix(1.3333333,0,0,-1.3333333,0,793.7008)" />
    <path
       id="path28"
       d="m 232.8406,444.8208 c -0.2987,-0.0232 -0.2851,-0.3325 -0.4056,-0.5145 l 0.0933,-7.9954 c -0.0933,-0.1236 -0.1965,-0.1888 -0.3569,-0.1615 -0.5593,2.423 -0.5185,5.0754 -1.0029,7.4916 -0.1021,0.1653 -0.1644,0.3425 -0.4145,0.3153 -0.5592,-0.4145 -1.0125,-1.0534 -1.5105,-1.5886 -0.7849,-0.8266 -2.0931,-1.3966 -2.2916,-2.5191 -0.1479,-3.4688 0.3121,-6.8556 1.3794,-9.8788 0.7546,-1.5437 1.7294,-3.8712 3.7953,-3.8052 2.7691,0.4944 3.4308,3.5583 4.0969,5.7779 0.6216,3.2604 1.0565,6.7291 0.7276,10.1919 -1.1593,1.2178 -2.6594,2.0415 -4.1105,2.6864"
       style="fill:#ffffff;fill-opacity:1;fill-rule:evenodd;stroke:none"
       transform="matrix(1.3333333,0,0,-1.3333333,0,793.7008)" />
    <path
       id="path29"
       d="m 224.9277,439.7454 c -0.2508,0.9864 -1.387,1.1497 -2.0426,1.8842 l -2.2743,2.0114 c -0.1885,0.22 -0.5456,0.072 -0.6593,-0.1343 -0.22,-2.7244 -0.364,-5.48 -0.6517,-8.1706 l -0.148,-0.3665 c -0.0992,-0.0613 -0.2712,-0.0624 -0.322,0.072 -0.2372,2.7255 -0.3228,5.6443 -0.4872,8.4651 l -0.3637,0.0924 c -0.6081,-0.6029 -1.2734,-1.2935 -1.9738,-1.7671 -0.957,-0.9709 -2.3295,-1.2725 -3.0881,-2.3366 -0.1984,-2.1719 -0.2948,-4.3781 -0.106,-6.5024 -0.0244,-3.4308 2.1447,-6.7292 5.3215,-8.1082 0.7489,-0.216 1.599,-0.0488 2.2411,0.3081 4.8313,3.3908 4.0969,9.2446 4.5541,14.5525"
       style="fill:#ffffff;fill-opacity:1;fill-rule:evenodd;stroke:none"
       transform="matrix(1.3333333,0,0,-1.3333333,0,793.7008)" />
    <path
       id="path30"
       d="m 270.5043,443.641 c -0.9233,-0.0419 -1.8054,-0.2196 -2.5194,-0.7996 l -0.2637,-4.053 c 0.0408,-0.4484 -0.0348,-0.8813 -0.3676,-1.1081 l -0.2401,0.1928 -0.2716,4.4266 -0.2469,0.2948 -1.9553,-0.4981 c -1.133,-0.504 -0.601,-1.9805 -0.673,-2.8587 0.1372,-2.247 0.2812,-4.6426 2.1683,-6.0423 0.6701,-0.3016 1.4862,-0.0788 2.0795,0.2228 2.7215,2.4891 2.8519,6.2416 2.6523,9.828 z"
       style="fill:#ffffff;fill-opacity:1;fill-rule:evenodd;stroke:none"
       transform="matrix(1.3333333,0,0,-1.3333333,0,793.7008)" />
    <path
       id="path31"
       d="m 155.5058,443.5447 c -0.2296,-0.038 -0.3844,-0.2645 -0.4016,-0.5049 0,-3.5433 0,-7.3154 2.7895,-9.6831 0.5497,-0.3286 1.2422,-0.4193 1.8638,-0.1613 2.5764,1.8635 2.2331,5.3078 2.2331,8.2289 -0.1468,0.5729 -0.744,0.6897 -1.2069,0.8745 -0.5213,9e-4 -1.1674,0.6418 -1.5894,0.0309 l -0.1917,-4.2545 -0.2023,-0.3081 c -0.1304,-0.1548 -0.2917,-0.0703 -0.3989,0.0436 -0.0572,1.641 -0.4657,3.174 -0.2948,4.8314 -0.5009,0.9026 -1.671,0.7509 -2.6008,0.9026"
       style="fill:#ffffff;fill-opacity:1;fill-rule:evenodd;stroke:none"
       transform="matrix(1.3333333,0,0,-1.3333333,0,793.7008)" />
    <path
       id="path32"
       d="m 139.3475,390.2958 -1.0913,5.5344 -2.0866,13.7432 c -0.4901,3.9532 -1.2082,7.8129 -1.7119,11.7493 -0.9989,7.1445 -2.3374,14.1478 -2.5738,21.5734 l -0.1576,0.3501 c -0.529,-1.3102 -1.7127,-2.8899 -3.1952,-3.2392 -1.6331,-0.1916 -2.852,0.9641 -3.7234,2.213 l -0.0887,-0.0856 c 0.4388,-3.7128 0.9465,-7.5112 1.5194,-11.2277 l 3.1575,-18.2965 c 0.8918,-4.8966 1.6234,-9.862 2.6864,-14.6934 1.1469,-6.6572 3.422,-12.8444 5.2778,-19.2331 l -0.1128,-0.1304 c -0.2509,-0.1545 -0.5221,0.0236 -0.5941,0.2404 -2.7071,7.1161 -4.7974,14.5145 -6.454,22.0742 l -1.9734,10.3289 c -1.6878,8.5402 -3.1332,17.1808 -4.8209,25.6978 -0.3501,1.2254 -0.1341,2.704 -0.7489,3.8225 -0.0924,0.0147 -0.1576,-0.0692 -0.2228,-0.1168 -0.0924,-3.3653 -1.3071,-6.798 -4.6455,-8.3038 0.6789,-5.9499 2.0583,-11.749 3.2324,-17.5345 l 2.2751,-10.0577 1.379,-5.3693 c 2.5495,-10.4009 7.3157,-19.91 11.5634,-29.6039 0.3541,-1.0846 0.6596,-2.2003 1.1225,-3.2701 0.1724,-0.0788 0.2648,-0.0788 0.4292,0 3.3012,3.6853 4.2894,8.6295 3.4724,13.6984 z"
       style="fill:#ffffff;fill-opacity:1;fill-rule:evenodd;stroke:none"
       transform="matrix(1.3333333,0,0,-1.3333333,0,793.7008)" />
    <path
       id="path33"
       d="m 303.6243,440.6871 -0.1517,0.174 c -0.0924,0 -0.1888,-0.038 -0.2568,-0.0544 -0.5145,-3.6573 -1.2869,-7.2233 -1.9182,-10.8369 l -4.8693,-26.0611 c -1.5611,-8.123 -3.7642,-16.0087 -6.5648,-23.5851 -0.3325,-0.597 -0.2089,-1.6399 -0.9882,-1.8392 -0.1236,0.1109 -0.1712,0.2509 -0.1576,0.4153 1.1458,4.0601 2.5563,8.043 3.7021,12.113 l 2.2926,10.4117 3.8336,22.3007 c 1.0806,6.0143 1.9383,12.1158 2.7885,18.2098 0.0215,0.1315 -0.0369,0.3707 -0.2362,0.2851 -0.8852,-1.0944 -2.0797,-2.6214 -3.8188,-2.0554 -1.4077,0.2645 -2.2995,1.8355 -2.8451,3.0396 -0.0788,0.0768 -0.1644,0.042 -0.2364,-0.0504 -0.3433,-8.7398 -2.0214,-17.0552 -3.2429,-25.4475 l -1.5165,-10.4108 -1.6399,-10.8017 -2.0729,-10.8573 -1.033,-5.663 c -0.8033,-4.8206 0.2189,-9.474 3.2868,-12.9912 0.2333,-0.0924 0.4533,-0.4941 0.7381,-0.2132 l 1.3794,3.7517 4.3373,9.587 c 4.4197,9.5012 7.2853,19.6484 9.5947,30.0212 l 2.3879,11.4066 c 0.6009,3.3013 1.2458,6.5843 1.7878,9.8963 0.1477,0.3501 0.1477,0.8986 -0.2228,1.1634 -3.0096,1.599 -4.3586,4.7622 -4.3577,8.0918"
       style="fill:#ffffff;fill-opacity:1;fill-rule:evenodd;stroke:none"
       transform="matrix(1.3333333,0,0,-1.3333333,0,793.7008)" />
    <path
       id="path34"
       d="m 210.886,439.2862 -0.2131,0.3747 c -1.5951,0.6341 -3.1088,1.6155 -4.2585,3.0708 -0.1817,0.1097 -0.3666,0.0377 -0.4978,-0.0896 -0.1159,-2.5631 -0.5732,-5.0133 -0.8405,-7.5248 0,-0.1233 -0.1372,-0.2917 -0.2851,-0.2781 -0.0681,0.0485 -0.0681,0.1304 -0.1438,0.2024 -0.0583,2.4843 -0.1099,4.9033 0.0485,7.3261 l -0.0932,0.4737 c -0.7861,0.144 -1.1937,-0.8102 -1.8423,-1.105 -0.9436,-0.7645 -2.5495,-0.7653 -2.8822,-2.1378 0.3327,-4.5397 -1.5203,-10.0197 2.0894,-13.3348 0.892,-0.7305 1.6778,-1.8082 2.9239,-1.7294 6.1183,2.3131 5.7407,9.1035 5.9947,14.7518"
       style="fill:#ffffff;fill-opacity:1;fill-rule:evenodd;stroke:none"
       transform="matrix(1.3333333,0,0,-1.3333333,0,793.7008)" />
    <path
       id="path35"
       d="m 167.9241,440.3571 -0.6517,-4.3197 c -0.0136,-0.1965 -0.1584,-0.4677 -0.422,-0.4434 -0.0652,0.0621 -0.144,0.1613 -0.1928,0.2469 0.0488,1.5721 0.144,3.1332 0.1208,4.6701 l -0.3708,0.4017 c -0.7518,0.0592 -1.7946,0.8918 -2.3372,-0.0516 -0.182,-3.1632 -0.3707,-6.5716 1.7226,-8.9186 0.3909,-0.3357 0.8646,-0.4902 1.4142,-0.4045 2.1311,0.9269 2.5524,3.2456 3.1536,5.1706 0.106,0.9893 0.4561,2.1691 0,3.106 -0.7209,0.35 -1.5582,0.8197 -2.4367,0.5425"
       style="fill:#ffffff;fill-opacity:1;fill-rule:evenodd;stroke:none"
       transform="matrix(1.3333333,0,0,-1.3333333,0,793.7008)" />
    <path
       id="path36"
       d="m 258.8502,435.7553 -0.6653,4.4093 c 0,0.1761 -0.2061,0.3464 -0.4017,0.3464 -0.9053,-0.2608 -2.3442,-0.1547 -2.4502,-1.4065 0.3404,-2.8891 0.642,-6.1115 3.4727,-7.5665 0.5737,-0.1304 1.1018,0.1576 1.5134,0.5561 1.8218,2.4055 1.7635,5.7643 1.6302,8.877 l -0.2985,0.3472 c -0.9272,-0.0419 -1.9153,-0.0935 -2.5018,-0.7588 l 0.1788,-4.6222 -0.1788,-0.3433 c -0.1196,-0.0487 -0.1956,0.0613 -0.2988,0.1613"
       style="fill:#ffffff;fill-opacity:1;fill-rule:evenodd;stroke:none"
       transform="matrix(1.3333333,0,0,-1.3333333,0,793.7008)" />
    <path
       id="path37"
       d="m 250.2275,433.9023 c -0.3436,0.4252 -0.1792,1.0469 -0.364,1.5341 -0.4016,1.0466 0.0652,2.5223 -0.7857,3.3109 -0.7929,0.0176 -1.465,-0.1749 -2.0526,-0.6282 -0.3081,-0.6236 -0.0301,-1.3753 -0.0408,-2.0826 0.326,-2.3635 0.6284,-5.1298 3.0991,-6.2796 0.6041,-0.2188 1.1146,0.137 1.4958,0.5766 1.5682,2.4718 2.007,5.5211 1.7433,8.6406 l -0.3503,0.4113 c -0.8578,0.0487 -1.8286,-0.0241 -2.4327,-0.6381 -0.2197,-1.4686 0,-3.092 0,-4.6154 -0.0476,-0.106 -0.1681,-0.2848 -0.3121,-0.2296"
       style="fill:#ffffff;fill-opacity:1;fill-rule:evenodd;stroke:none"
       transform="matrix(1.3333333,0,0,-1.3333333,0,793.7008)" />
    <path
       id="path38"
       d="m 175.5218,438.518 -0.2684,0.4561 c -0.6761,0.2645 -1.6226,0.6692 -2.2266,0.0516 -0.5145,-1.215 -0.4425,-2.8588 -0.2305,-4.1865 0.4017,-1.8462 0.6245,-3.9736 2.4815,-4.983 0.5728,-0.1849 1.1009,0.066 1.523,0.4288 1.9738,1.9562 2.0662,4.7974 2.0662,7.5257 -0.0584,0.3949 -0.4632,0.6069 -0.7929,0.7073 -0.4288,0.0856 -1.2381,0.3325 -1.4717,-0.2784 l -0.6214,-4.1065 -0.1916,-0.2308 c -0.1343,-0.034 -0.2103,0.0964 -0.3192,0.1608 -0.0788,1.4822 0.2501,3.02 0.0516,4.4549"
       style="fill:#ffffff;fill-opacity:1;fill-rule:evenodd;stroke:none"
       transform="matrix(1.3333333,0,0,-1.3333333,0,793.7008)" />
    <path
       id="path39"
       d="m 287.716,428.1996 1.5162,10.0412 c 0.0652,0.1808 0.0992,0.6885 -0.1817,0.6369 -0.7645,-0.8161 -1.5409,-2.3579 -2.9239,-2.2167 -1.393,-0.0264 -2.5767,1.3998 -3.136,2.526 l -0.216,-0.0817 c -0.034,-2.7527 -0.5009,-5.3302 -0.748,-7.9653 l -1.531,-13.3521 c -0.6857,-4.8138 -0.991,-9.7823 -1.7159,-14.6001 l -1.7282,-12.6791 -0.4533,-4.2993 -0.1996,-0.4232 c -0.0992,-0.1497 -0.2364,0.042 -0.2916,0.0992 0,3.8957 0.4912,7.7485 0.9433,11.5169 l 1.3734,12.6828 0.8705,9.3883 1.0642,12.0654 0.3951,4.8489 c 0.0513,0.2297 -0.2579,0.2461 -0.3608,0.2285 -0.5624,-1.1282 -1.3618,-2.5531 -2.7207,-2.8003 -1.2734,-0.3288 -2.2955,0.4221 -3.0952,1.2665 l -0.1508,-0.144 c 0.1236,-1.1866 -0.0485,-2.4503 -0.0485,-3.562 l -1.0224,-13.9445 -1.2733,-16.924 c -0.1712,-9.2199 -2.9676,-21.1277 6.0842,-26.6391 0.3365,-0.178 0.6693,-0.6449 1.0565,-0.3569 9e-4,2.3063 -0.0167,4.7254 0.4289,6.9012 2.2371,12.0722 5.0414,23.8513 6.6404,36.2084 z"
       style="fill:#ffffff;fill-opacity:1;fill-rule:evenodd;stroke:none"
       transform="matrix(1.3333333,0,0,-1.3333333,0,793.7008)" />
    <path
       id="path40"
       d="m 152.6956,416.6867 -0.9746,13.2355 -0.1789,3.274 c -0.0204,0.6993 0.0961,1.2169 -0.1031,1.8454 -0.7305,-0.8025 -1.6742,-1.4037 -2.8412,-1.2665 -1.4922,0.072 -2.3675,1.6398 -3.0223,2.7731 -0.0516,0 -0.1449,0.0164 -0.1585,-0.038 0.0136,-2.6631 0.2061,-5.1786 0.5077,-7.7621 l 1.675,-18.0629 0.8473,-8.0014 1.3734,-13.2488 0.144,-3.3908 -0.1996,-0.3464 c -0.1681,0 -0.3257,0.1468 -0.3948,0.3084 -0.0165,2.8139 -0.7342,5.3362 -0.9706,8.0433 l -1.5789,11.9523 c -0.6622,7.2232 -1.8734,14.3597 -2.4803,21.6725 l -1.2187,11.431 h -0.1536 c -0.7452,-1.0981 -1.6441,-2.7944 -3.278,-2.5571 -1.1625,0.1956 -1.9794,1.3929 -2.6079,2.2742 l -0.2987,9e-4 c 0.2131,-2.4435 0.7928,-4.7602 1.0845,-7.1717 l 2.5223,-19.1406 1.819,-11.0866 1.4649,-7.2584 c 1.0154,-6.8205 3.6961,-13.0672 2.9891,-20.4477 0.0993,-0.106 0.2129,-0.3368 0.4425,-0.2472 5.0474,2.461 7.1133,7.7553 7.3778,13.0467 0.038,4.6494 -0.1925,9.2163 -0.563,13.7257 z"
       style="fill:#ffffff;fill-opacity:1;fill-rule:evenodd;stroke:none"
       transform="matrix(1.3333333,0,0,-1.3333333,0,793.7008)" />
    <path
       id="path41"
       d="m 243.5528,429.0129 c 2.5778,1.8839 1.7158,5.6103 1.5993,8.441 -0.0992,0.3568 -0.3396,0.7409 -0.7512,0.7168 -0.529,-0.144 -1.2731,-0.0516 -1.4794,-0.6448 l 0.3124,-4.6117 -0.1713,-0.2121 c -0.1275,-0.0623 -0.1927,0.0712 -0.2956,0.1469 l -0.7101,4.5093 -0.1888,0.322 c -0.432,0.1928 -0.786,-0.1544 -1.1701,-0.2264 -0.4737,-0.2189 -0.7657,-0.7101 -0.7073,-1.2666 0.0284,-2.4355 0.1208,-4.8274 1.6575,-6.6259 0.5604,-0.4116 1.2217,-0.7997 1.9046,-0.5485"
       style="fill:#ffffff;fill-opacity:1;fill-rule:evenodd;stroke:none"
       transform="matrix(1.3333333,0,0,-1.3333333,0,793.7008)" />
    <path
       id="path42"
       d="m 184.8586,437.6123 c -0.2373,0.1548 -0.7314,0.1984 -0.851,-0.1584 -0.1655,-1.461 -0.4912,-2.8996 -0.718,-4.3373 -0.0436,-0.178 -0.0884,-0.4768 -0.3501,-0.4153 -0.1468,0.0728 -0.1468,0.2361 -0.1984,0.3597 l 0.3016,4.5513 c -0.25,0.5417 -0.9096,0.4629 -1.4757,0.4629 -0.2333,-0.068 -0.3257,-0.2168 -0.4561,-0.3949 -0.5077,-2.7311 -1.0154,-6.5307 1.2325,-8.5858 0.4357,-0.216 0.991,-0.2636 1.4131,0.0485 2.3678,1.6645 2.1693,4.8829 2.1245,7.6008 -0.1411,0.4629 -0.6312,0.6925 -1.0224,0.8685"
       style="fill:#ffffff;fill-opacity:1;fill-rule:evenodd;stroke:none"
       transform="matrix(1.3333333,0,0,-1.3333333,0,793.7008)" />
    <path
       id="path43"
       d="m 169.2519,430.8656 c -0.6273,-0.7926 -1.5642,-1.6302 -2.6799,-1.4103 -1.4034,0.216 -2.2371,1.7459 -2.7244,2.9024 l -0.1995,-0.2293 0.1275,-10.8816 c 0.1712,-5.1738 0.038,-10.5069 0.2948,-15.7607 -0.0235,-4.1785 0.3189,-8.4994 -0.11,-12.6895 l -0.2324,-0.364 -0.2239,0.1967 c -0.0854,3.4937 -0.171,6.8108 -0.4873,10.2084 l -0.7197,14.0417 c -0.0584,5.2563 -0.3065,10.438 -0.2101,15.7604 -0.0476,0.0887 -0.1332,0.1128 -0.2432,0.1128 -0.5972,-0.9746 -1.641,-2.3295 -2.9483,-2.1203 -1.1974,0.003 -1.9967,1.1633 -2.5835,2.069 0.0244,-2.0991 0.402,-4.2001 0.5556,-6.3411 l 0.6693,-10.4964 0.3988,-7.2573 1.173,-14.1517 c 0.0856,-4.5501 0.3189,-9.2103 -0.2132,-13.6369 0.0896,-0.2268 0.354,-0.3163 0.5632,-0.1995 l 3.71,1.7237 c 1.0426,0.8609 2.1991,1.8831 2.8712,3.0328 2.8968,5.2194 2.9308,11.7422 2.8968,18.0221 l -0.1585,10.7442 c 0.11,5.5522 0.1585,11.0653 0.5593,16.5727 z"
       style="fill:#ffffff;fill-opacity:1;fill-rule:evenodd;stroke:none"
       transform="matrix(1.3333333,0,0,-1.3333333,0,793.7008)" />
    <path
       id="path44"
       d="m 268.4237,431.14 c -0.504,-0.4249 -1.0905,-0.6001 -1.8287,-0.5077 -1.1701,0.0555 -1.8113,1.3481 -2.5047,2.1203 -0.3571,-0.3949 -0.1888,-1.2762 -0.1576,-1.887 l -0.1995,-12.9192 -0.7101,-13.4376 c -0.144,-3.8608 -0.5358,-7.6834 -0.4697,-11.5606 l -0.1585,-0.4076 c -0.106,-0.0865 -0.3123,0.0536 -0.3123,0.2044 -0.4629,4.6165 -0.182,9.1655 -0.0448,13.8364 l 0.1995,10.4117 c 0.1789,5.095 -0.1372,10.012 0.1196,15.1353 l -0.216,0.2293 c -0.466,-1.2594 -1.4269,-3.0676 -3.0191,-3.0676 -0.5809,0.0524 -1.071,0.2713 -1.4962,0.6797 -0.3841,0.2336 -0.5805,1.1702 -1.0709,0.8025 0.4632,-3.0095 0.3572,-6.2855 0.5216,-9.4496 l 0.1,-17.9733 c -0.1992,-5.3977 0.1089,-10.5868 1.5778,-15.281 0.9542,-3.4308 4.2106,-6.3587 7.5393,-7.45 0.1993,-0.0273 0.5825,-0.1469 0.7101,0.1139 -0.1644,5.0715 -0.3572,10.5886 0.1644,15.7156 l 0.9026,11.757 1.0233,16.7448 c 0.1304,2.5835 0.5076,5.1885 0.6545,7.7516 l -0.1469,8e-4 c -0.3393,-0.5564 -0.6593,-1.0953 -1.1777,-1.5621"
       style="fill:#ffffff;fill-opacity:1;fill-rule:evenodd;stroke:none"
       transform="matrix(1.3333333,0,0,-1.3333333,0,793.7008)" />
    <path
       id="path45"
       d="m 182.2266,426.659 c -0.8512,0.0688 -1.2869,1.0153 -1.6642,1.629 -0.2716,0.258 -0.072,1.105 -0.5564,0.855 -1.0945,-10.6509 -0.2404,-22.0128 -2.0895,-32.4032 -0.072,-0.2024 -0.3024,-0.3092 -0.4697,-0.0963 0.1681,2.0494 0.3561,4.0629 0.4425,6.1251 l 0.0272,12.4874 c 0,4.6806 0.3501,9.364 0.5145,14.0341 -0.0924,0.1652 -0.2508,0.1652 -0.3569,0 -0.4288,-1.0021 -1.4717,-1.8289 -2.6319,-1.7742 -1.0633,0.1584 -1.7161,1.2702 -2.141,2.0931 -0.0828,-8.1522 -0.2744,-16.2128 -0.0409,-24.3318 0.0409,-6.3479 0.5593,-12.861 -1.2149,-18.6261 l 0.0828,-0.1333 c 0.7197,0.0865 1.3413,0.6585 2.0338,0.9434 3.7545,1.5962 6.7017,5.4354 8.2086,9.0315 3.0609,9.729 1.4171,21.4945 2.8032,31.8441 h -0.1508 c -0.5457,-1.0194 -1.5095,-1.8774 -2.7964,-1.6778"
       style="fill:#ffffff;fill-opacity:1;fill-rule:evenodd;stroke:none"
       transform="matrix(1.3333333,0,0,-1.3333333,0,793.7008)" />
    <path
       id="path46"
       d="m 252.8215,405.8266 v 23.4167 c -0.1925,0.8473 -0.5009,-0.2304 -0.5494,-0.4572 -0.4592,-0.7169 -1.1284,-1.383 -2.0446,-1.2702 -1.0534,0.1216 -1.8014,1.0437 -2.3783,1.8907 -0.2364,0.0856 -0.2812,-0.1301 -0.2472,-0.3121 0.9165,-10.5197 0.0108,-21.7865 0.9477,-32.3926 l -0.0964,-0.1645 c -0.0924,-0.1303 -0.2228,0.0341 -0.2988,0.1061 -0.5417,3.0163 -0.8441,6.1738 -1.1293,9.2786 l -0.3461,10.9125 -0.6177,11.9515 c 0,0.1927 0.0692,0.5281 -0.2296,0.4561 -0.288,-0.6826 -0.4221,-1.4579 -1.0193,-2.0075 -0.4873,-0.4289 -1.0534,-0.6897 -1.7499,-0.5757 -0.854,0.0932 -1.637,0.9161 -1.9941,1.6778 -0.0856,0.0893 -0.3229,0.0436 -0.3229,-0.0896 1.4386,-10.0188 0.5185,-21.0384 2.9307,-30.6397 0.7453,-4.7761 5.0415,-9.0178 9.3816,-10.8056 0.2647,-0.0672 0.5593,-0.3532 0.824,-0.0856 -1.5749,5.8478 -1.2529,12.7655 -1.0604,19.1103"
       style="fill:#ffffff;fill-opacity:1;fill-rule:evenodd;stroke:none"
       transform="matrix(1.3333333,0,0,-1.3333333,0,793.7008)" />
    <path
       id="path47"
       d="m 226.6804,426.3602 c -0.2333,0.1207 -0.5902,0.0516 -0.6962,-0.2616 -0.4048,-2.5583 -0.7793,-5.2087 -1.4213,-7.6961 l -0.1953,-0.2577 -0.0924,0.1004 c 0.0924,2.5843 0.4221,5.1327 0.5077,7.6549 -0.072,0.2645 -0.3436,0.4465 -0.6208,0.3637 -0.7586,-0.9805 -1.7399,-1.9423 -2.7312,-2.6835 -0.642,-0.6041 -1.4998,-0.7685 -2.0282,-1.4755 -0.4425,-3.0503 -0.0309,-6.5163 -0.1516,-9.6386 0.0487,-2.814 0.9785,-5.8848 3.8469,-6.939 1.3424,-0.4524 2.0077,1.0367 2.783,1.8119 2.3403,4.7594 2.9268,10.2464 3.7573,15.6371 0.038,0.6041 -0.2265,1.0369 -0.6721,1.4553 z"
       style="fill:#ffffff;fill-opacity:1;fill-rule:evenodd;stroke:none"
       transform="matrix(1.3333333,0,0,-1.3333333,0,793.7008)" />
    <path
       id="path48"
       d="m 193.3376,423.1037 c -0.4709,0.2121 -0.995,0.8062 -1.5826,0.5758 l -0.0408,-6.1387 -0.1508,-0.2053 -0.1576,0.0964 c -0.3257,2.2615 -0.3782,4.625 -0.563,6.9684 l -1.4037,1.7643 c -0.1993,0.1616 -0.4561,-0.066 -0.4833,-0.2645 l -0.0312,-8.3962 c 0.2441,-3.4044 -0.4224,-7.2584 0.9473,-10.2095 0.5077,-0.8161 0.9057,-2.3879 2.2539,-2.1748 1.3665,0.7693 2.0279,2.2915 2.4403,3.706 0.5077,4.7183 -0.8064,9.1199 -0.9161,13.8042 z"
       style="fill:#ffffff;fill-opacity:1;fill-rule:evenodd;stroke:none"
       transform="matrix(1.3333333,0,0,-1.3333333,0,793.7008)" />
    <path
       id="path49"
       d="m 214.2309,424.6852 c -0.6554,0.2364 -1.1838,1.9358 -1.8831,0.8541 -0.2168,-2.7615 -0.1924,-5.6027 -0.4016,-8.3447 l -0.1576,-0.2015 c -0.1372,-0.0797 -0.2169,0.0536 -0.2821,0.15 -0.3396,2.6807 -0.4289,5.4558 -0.5173,8.2522 l -0.2676,0.354 c -0.8997,0.1517 -1.1361,-1.0193 -1.8607,-1.4726 -0.8716,-0.9329 -2.1274,-1.1973 -2.7926,-2.2819 -0.4981,-3.6708 0.4008,-7.298 0.5864,-10.9428 0.7005,-2.384 2.5495,-4.739 4.8966,-5.8468 0.4737,-0.1723 1.1225,-0.1888 1.5747,0.1165 1.6577,1.4281 3.5455,3.0612 3.778,5.2197 0.316,3.6922 0.6528,7.4458 0.5156,11.251 -0.3912,1.607 -2.1935,1.7879 -3.1887,2.8928"
       style="fill:#ffffff;fill-opacity:1;fill-rule:evenodd;stroke:none"
       transform="matrix(1.3333333,0,0,-1.3333333,0,793.7008)" />
    <path
       id="path50"
       d="m 236.4287,425.7085 c -0.4141,-0.2752 -0.7197,-0.8033 -1.169,-1.1741 -0.7384,-2.0523 -0.46,-4.5326 -0.8036,-6.7465 l -0.1644,-0.4016 c -0.1029,0 -0.1341,0.1165 -0.1993,0.1545 v 3.0035 c -0.0136,1.0157 0.1576,2.1887 -0.3501,2.9951 -0.6993,-0.2236 -1.7461,-0.1615 -1.9278,-1.1389 -0.5729,-3.9464 -0.7384,-8.1366 -0.8445,-12.2094 0.0341,-1.7527 1.2286,-3.4005 2.8443,-4.1553 0.4366,-0.1508 1.0814,-0.2265 1.4142,0.2432 1.5234,2.4199 1.3034,5.6347 1.3034,8.6298 l 0.0488,10.3328 z"
       style="fill:#ffffff;fill-opacity:1;fill-rule:evenodd;stroke:none"
       transform="matrix(1.3333333,0,0,-1.3333333,0,793.7008)" />
    <path
       id="path51"
       d="m 202.3135,423.265 c -0.8782,0.5321 -1.5367,1.6198 -2.5523,1.8318 -0.1993,8e-4 -0.2333,-0.2364 -0.3501,-0.3424 0.3501,-2.2411 0.5525,-4.5746 0.7237,-6.8089 -0.0992,-0.1576 0.007,-0.5487 -0.3084,-0.4427 -0.5494,2.2342 -0.9542,4.5368 -1.4142,6.8187 l -0.3425,0.6769 c -0.6729,0.4349 -1.1225,-0.4884 -1.6506,-0.8249 -0.4221,-0.534 -1.3694,-0.4589 -1.4241,-1.3101 0.9261,-5.3226 1.4241,-10.8261 3.6952,-15.569 0.8717,-1.0387 1.891,-2.6144 3.4764,-2.3879 0.9233,0.2987 1.465,1.3073 1.7666,2.1381 1.2294,4.6191 0.2713,9.8581 0.0553,14.6486 -0.2577,0.7521 -1.0437,1.2082 -1.675,1.5718"
       style="fill:#ffffff;fill-opacity:1;fill-rule:evenodd;stroke:none"
       transform="matrix(1.3333333,0,0,-1.3333333,0,793.7008)" />
    <path
       id="path52"
       d="m 192.2219,519.2688 c 1.5582,-0.3433 2.4463,-1.961 2.6906,-3.4152 0.5485,-2.2819 3.0881,-3.4588 4.7146,-5.0541 3.566,-2.8304 3.8333,-7.1998 5.6143,-10.8669 1.173,-1.9695 2.9435,-3.706 3.558,-5.9196 -0.0757,-0.5584 0,-1.1693 -0.5629,-1.5282 -0.7821,-0.2792 -1.5477,0.1848 -2.1274,0.777 -0.9709,1.5809 -1.1702,3.4688 -1.819,5.1982 l -3.2973,6.5511 c -1.4649,2.1115 -2.9922,4.1902 -4.8625,6.1444 -2.5943,1.5758 -2.0214,5.2974 -5.1262,5.9247 -0.6625,-0.0448 -1.7643,0.3784 -2.0795,-0.3705 1.5503,-1.6214 2.954,-3.4248 3.9421,-5.349 3.7576,-4.1057 5.8167,-8.8795 7.6661,-13.7636 1.5755,-3.3429 3.2632,-7.1376 6.6852,-9.2551 1.5057,-0.428 2.6419,0.5284 3.5677,1.6166 1.2393,1.6401 1.2801,4.3364 0.4504,6.1806 -1.7362,2.594 -3.1776,5.3176 -4.2177,8.2066 -0.8674,3.2876 -0.2129,6.9149 0.8093,9.8844 0.5633,1.609 -1.4746,2.3551 -0.7373,3.9793 0.7725,0.6956 1.3453,1.6858 0.9505,2.7692 -0.1469,0.4096 -0.4768,0.6868 -0.8785,0.7744 -0.4289,0.1148 -0.9297,0.0281 -1.2458,-0.3104 -0.8405,-0.8473 0.3161,-2.0055 -0.398,-2.7876 -0.3084,-0.0944 -0.4629,0.1321 -0.6273,0.3025 -0.1956,2.067 -1.7674,3.5745 -3.24,5.1278 l -3.1391,2.6419 c -2.4471,1.8831 -5.5831,4.2897 -8.7123,2.3656 -3.3012,-2.6496 -3.6756,-6.8477 -3.6756,-10.9506 l 0.2644,-0.0388 c 1.4687,1.5321 3.8228,1.5321 5.8332,1.1653"
       style="fill:#fcd213;fill-opacity:1;fill-rule:evenodd;stroke:none"
       transform="matrix(1.3333333,0,0,-1.3333333,0,793.7008)" />
    <path
       id="path53"
       d="m 185.775,440.0478 0.4181,0.3572 v 1.9259 c -0.0856,0.6993 0.3736,1.6049 -0.1545,2.0854 -12.075,1.5611 -23.9516,3.6437 -34.5169,8.7571 -7.5832,3.7916 -16.8548,9.9507 -18.8733,18.845 -1.8519,6.4723 0.714,12.6556 2.6702,18.3314 0.5321,-1.0438 1.6126,-1.8394 2.6728,-2.1206 1.4241,-0.3393 2.8072,0.0643 3.8336,0.9708 0.9774,1.0233 1.4337,2.3199 1.207,3.7789 -0.1956,1.4094 -1.4826,2.7167 -2.7964,3.1603 0.4357,0.5914 0.8266,1.2286 1.0261,1.9336 0.3093,1.3492 -0.0544,2.679 -0.8716,3.6992 -1.1498,1.214 -2.8588,1.6877 -4.4501,1.1593 -1.2323,-0.3773 -2.2819,-1.6234 -2.5912,-2.8519 -0.2052,-0.3929 0,-0.9493 -0.2061,-1.3462 -0.4699,0.2228 -0.892,0.5729 -1.4173,0.6528 -1.3549,0.3345 -2.6867,-0.0515 -3.7128,-0.8824 -1.2246,-1.1205 -1.6807,-2.8304 -1.1662,-4.4373 0.3977,-1.2218 1.6155,-2.3003 2.8372,-2.5844 0.828,-0.2256 1.7986,-0.0448 2.5535,0.038 -0.178,-0.6381 -0.4397,-1.2393 -0.7753,-1.8082 -1.6614,-4.701 -2.9648,-9.5403 -2.8383,-14.965 0.5292,-10.256 8.9078,-19.0726 17.7613,-23.6216 5.0542,-2.3542 10.1852,-4.599 15.6058,-6.0503 7.5841,-2.4775 15.7031,-3.7576 23.7844,-5.027"
       style="fill:#fcd213;fill-opacity:1;fill-rule:evenodd;stroke:none"
       transform="matrix(1.3333333,0,0,-1.3333333,0,793.7008)" />
    <path
       id="path54"
       d="m 297.7084,491.5199 c 1.2801,1.1497 1.6809,2.9976 1.101,4.6193 -0.4601,1.2907 -1.8083,2.312 -3.1397,2.4812 -0.9125,0.2268 -1.7634,-0.1692 -2.5495,-0.2373 0.1304,0.9514 -0.106,1.8842 -0.5349,2.6856 -1.0224,1.4658 -2.6739,2.1983 -4.424,1.7674 -1.3822,-0.3016 -2.704,-1.6146 -2.992,-2.992 -0.3121,-1.5318 0.1576,-2.9891 1.2694,-4.0572 -0.8742,-0.3773 -1.7731,-0.7722 -2.384,-1.6954 -0.8073,-1.1486 -0.9269,-2.9188 -0.2644,-4.1882 0.7001,-1.2762 1.9967,-2.1274 3.3896,-2.1858 1.5242,-0.0272 2.7528,0.6517 3.7236,1.8326 1.7606,-5.8887 4.5054,-12.3911 2.3063,-18.9071 -2.6498,-8.6578 -11.7873,-14.3444 -19.385,-17.7001 -10.1432,-4.4665 -21.0237,-7.1163 -32.5607,-8.1221 l -0.4661,-0.3013 c -0.1,-1.3521 -8e-4,-2.7315 -0.2508,-4.0085 l 0.2948,-0.3016 c 7.8758,1.0398 15.6407,2.3851 22.9875,4.7174 9.2855,3.1683 18.7799,6.0747 26.034,13.8941 2.6946,2.7674 4.6769,5.7962 6.0707,9.1383 2.5971,5.6514 1.2654,13.0391 -0.6245,18.6018 -0.3297,1.4386 -1.1186,2.745 -1.417,4.1456 1.3518,-0.3772 2.7788,-0.0728 3.8157,0.8133"
       style="fill:#fcd213;fill-opacity:1;fill-rule:evenodd;stroke:none"
       transform="matrix(1.3333333,0,0,-1.3333333,0,793.7008)" />
    <path
       id="path55"
       d="m 204.1597,376.1246 c 2.0389,-1.8434 6.4139,-0.3336 6.9627,-1.2158 0.5426,-0.8912 -5.5102,-4.8518 -3.4455,-6.8079 3.6748,-3.4852 9.6599,0.892 11.3241,-0.6625 0.9165,-0.8813 -2.7731,-1.9491 -0.7236,-3.8877 2.6759,-2.5282 5.9978,0.1924 9.3466,-1.1838 -0.102,1.0358 0.11,1.6302 0.11,1.6302 0,9e-4 -13.1527,13.8666 -17.6612,18.9547 -0.1789,0.2073 -0.0349,0.4221 0.2052,0.2064 3.1096,-2.92 18.4034,-17.2536 18.4034,-17.2536 0.2539,0.1828 1.3589,1.2597 3.0123,1.4618 -4.4773,3.6728 -1.0873,7.6045 -2.1135,8.4625 -2.1654,1.8015 -2.5942,-1.8297 -3.5243,-0.9541 -1.6438,1.561 2.4018,7.7686 -1.2625,11.2686 -2.0591,1.953 -5.6931,-4.2925 -6.6189,-3.8024 -0.9029,0.4873 0.3841,4.9521 -1.5826,6.8876 -3.0467,3.0231 -7.8234,0.9085 -10.7776,-2.2003 -2.958,-3.1192 -4.8419,-8.0158 -1.6546,-10.9037"
       style="fill:#fcd213;fill-opacity:1;fill-rule:evenodd;stroke:none"
       transform="matrix(1.3333333,0,0,-1.3333333,0,793.7008)" />
    <path
       id="path56"
       d="m 198.811,361.1217 c 3.6476,-0.2157 4.4461,4.0212 7.9157,5.095 -0.7724,0.7528 -0.9912,1.3141 -0.9912,1.3141 0,10e-4 -18.9763,2.1827 -25.7052,3.1884 -0.2647,0.0343 -0.2851,0.2988 0.0309,0.288 4.2616,-0.2296 25.1938,-1.3898 25.1938,-1.3898 0.072,0.3101 0.2256,1.8598 1.3589,3.0503 -5.7855,-0.0507 -5.7067,5.1339 -7.052,5.1339 -2.8239,-0.007 -0.8133,-3.0776 -2.0863,-2.9988 -2.2646,0.1341 -3.1536,7.5149 -8.2009,7.8165 -2.852,0.1781 -1.6263,-6.9519 -2.6428,-7.1648 -1.0116,-0.2016 -2.8958,4.0493 -5.6338,4.2653 -4.2761,0.3509 -6.5852,-4.3413 -6.8497,-8.623 -0.2636,-4.2925 1.4375,-9.2514 5.7408,-9.4088 2.7555,-0.1071 5.1338,3.8801 6.1154,3.5445 0.9814,-0.3368 -1.0984,-7.2613 1.7323,-7.4325 5.0646,-0.3092 6.8428,6.9032 9.1142,6.7592 1.2702,-0.0572 -0.8784,-3.2595 1.9599,-3.4375"
       style="fill:#fcd213;fill-opacity:1;fill-rule:evenodd;stroke:none"
       transform="matrix(1.3333333,0,0,-1.3333333,0,793.7008)" />
    <path
       id="path57"
       d="m 170.4124,335.1937 c 2.1855,1.6915 1.451,6.2652 2.4355,6.6396 0.9502,0.3773 3.7953,-6.2623 6.0911,-4.5706 4.0666,3.0096 0.8062,9.6801 2.628,11.039 1.0057,0.752 1.4386,-3.0747 3.6992,-1.383 2.9551,2.1787 0.8444,5.9363 2.7935,8.9971 -1.0493,0.0692 -1.6029,0.36 -1.6029,0.36 0.001,9e-4 -15.9248,-10.5137 -21.7378,-14.0825 -0.2333,-0.144 -0.4017,0.0417 -0.1576,0.2469 3.4035,2.5603 20.1903,15.1333 20.1903,15.1333 -0.1304,0.2645 -1.0156,1.5651 -0.93,3.2145 -4.3682,-3.7632 -7.6686,0.2472 -8.6919,-0.6137 -2.1614,-1.8258 1.349,-2.8723 0.3192,-3.63 -1.8182,-1.3558 -7.2332,3.7224 -11.3097,0.7033 -2.2643,-1.681 3.2392,-6.3584 2.5875,-7.1621 -0.6285,-0.8121 -4.8014,1.215 -7.0481,-0.3772 -3.5036,-2.4804 -2.2518,-7.549 0.2772,-11.0013 2.5668,-3.4549 7.0725,-6.1452 10.4565,-3.5133"
       style="fill:#fcd213;fill-opacity:1;fill-rule:evenodd;stroke:none"
       transform="matrix(1.3333333,0,0,-1.3333333,0,793.7008)" />
    <path
       id="path58"
       d="m 177.9953,315.4218 c 0.5009,0.9096 6.9693,-2.3443 7.6181,0.4184 1.1838,4.9314 -5.6074,7.9398 -5.0714,10.1469 0.2917,1.2209 3.0708,-1.4278 3.7125,1.3073 0.8785,3.5728 -3.1708,5.0922 -3.6377,8.695 -0.8512,-0.6304 -1.4689,-0.7373 -1.4689,-0.7373 0,0 -5.4422,-18.3138 -7.5937,-24.7685 -0.0856,-0.2433 -0.3393,-0.2296 -0.2705,0.0893 0.9641,4.136 5.7371,24.5556 5.7371,24.5556 -0.2812,0.1236 -1.7674,0.5621 -2.7791,1.8763 -0.9405,-5.7059 -6.0259,-4.7322 -6.2563,-6.0599 -0.497,-2.7788 2.8899,-1.3383 2.5942,-2.5696 -0.5488,-2.213 -7.9673,-1.8054 -9.1346,-6.736 -0.6613,-2.7519 6.5511,-2.7935 6.5919,-3.8265 0.0284,-1.0213 -4.4773,-2.1438 -5.1814,-4.8245 -1.1013,-4.1381 3.1396,-7.2332 7.3125,-8.2389 4.1661,-1.0018 9.3544,-0.1713 10.2572,4.0356 0.5797,2.6944 -2.9239,5.7303 -2.4299,6.6368"
       style="fill:#fcd213;fill-opacity:1;fill-rule:evenodd;stroke:none"
       transform="matrix(1.3333333,0,0,-1.3333333,0,793.7008)" />
    <path
       id="path59"
       d="m 198.5842,298.7138 c -0.2061,1.0089 6.846,2.6759 5.5658,5.2158 -2.2575,4.5326 -9.4019,2.4707 -10.4144,4.5054 -0.5701,1.1293 3.2632,0.8821 2.0171,3.4004 -1.6427,3.2839 -5.7056,1.8666 -8.3826,4.3209 -0.2469,-1.0438 -0.635,-1.5106 -0.635,-1.5106 0,8e-4 7.5869,-17.5281 10.0848,-23.8584 0.1029,-0.2469 -0.1236,-0.3881 -0.2608,-0.1137 -1.925,3.7985 -11.3921,22.5111 -11.3921,22.5111 -0.288,-0.0992 -1.7226,-0.7277 -3.346,-0.3473 2.9715,-4.9821 -1.5681,-7.5112 -0.8881,-8.6785 1.4105,-2.4355 3.0747,0.8376 3.6272,-0.3081 1.0261,-2.0282 -4.9346,-6.482 -2.6459,-11.0149 1.2422,-2.5396 6.8108,2.0727 7.5005,1.2937 0.6837,-0.7656 -2.0446,-4.5124 -0.8745,-7.0044 1.8394,-3.8908 7.062,-3.5404 10.9089,-1.6225 3.8324,1.9153 7.2708,5.881 5.2738,9.6871 -1.2937,2.4327 -5.913,2.5115 -6.1387,3.524"
       style="fill:#fcd213;fill-opacity:1;fill-rule:evenodd;stroke:none"
       transform="matrix(1.3333333,0,0,-1.3333333,0,793.7008)" />
    <path
       id="path60"
       d="m 232.4594,300.45 c -2.5563,1.037 -6.1523,-1.8734 -6.9696,-1.2245 -0.7925,0.6449 3.5272,6.4335 0.9233,7.5656 -4.6398,2.0212 -8.7982,-4.1513 -10.8681,-3.2419 -1.1758,0.5008 1.9154,2.7791 -0.6613,3.9013 -3.3664,1.4621 -5.5763,-2.2516 -9.1899,-2.0903 0.4776,-0.9533 0.4776,-1.5582 0.4776,-1.5582 0,10e-4 17.0745,-8.5374 23.0721,-11.7966 0.2375,-0.1276 0.1683,-0.3745 -0.1401,-0.258 -3.9121,1.6858 -23.1868,9.938 -23.1868,9.938 -0.1471,-0.2537 -0.8609,-1.671 -2.3366,-2.4191 5.4626,-1.9043 3.638,-6.7708 4.883,-7.2201 2.6594,-0.9601 1.815,2.6047 2.9891,2.0931 2.0931,-0.9026 0.4045,-8.1326 5.0474,-10.15 2.6008,-1.1382 3.8945,5.9675 4.9169,5.8263 1.0231,-0.1468 1.3422,-4.7798 3.8469,-5.9392 3.881,-1.7906 7.6629,1.8287 9.3924,5.7779 1.6954,3.9268 1.7878,9.1723 -2.1963,10.7957"
       style="fill:#fcd213;fill-opacity:1;fill-rule:evenodd;stroke:none"
       transform="matrix(1.3333333,0,0,-1.3333333,0,793.7008)" />
    <path
       id="path61"
       d="m 250.4268,322.1062 c -2.6428,-0.8365 -3.5076,-5.3878 -4.5474,-5.4219 -1.0357,-0.0136 -1.4482,7.2057 -4.1592,6.3859 -4.8751,-1.43 -4.0697,-8.8225 -6.2621,-9.4606 -1.2072,-0.3628 -0.288,3.3803 -2.9987,2.5739 -3.5136,-1.0574 -2.8347,-5.3022 -5.707,-7.5121 0.9816,-0.432 1.3833,-0.8785 1.3833,-0.8785 0,0.001 18.5638,4.4201 25.2618,5.7963 0.248,0.0408 0.354,-0.1857 0.0516,-0.2917 -4.0728,-1.2353 -24.1472,-7.3128 -24.1472,-7.3128 0.0379,-0.2869 0.422,-1.8179 -0.2228,-3.3381 5.3946,2.0415 7.1036,-2.8627 8.3797,-2.3987 2.6391,0.9746 -0.2917,3.1669 0.9233,3.5405 2.1923,0.6361 5.5414,-5.9907 10.4,-4.553 2.7116,0.8033 -0.8716,7.0929 0.008,7.6249 0.8852,0.5525 4.0969,-2.7966 6.7631,-2.073 4.1321,1.1333 4.6942,6.3207 3.4901,10.4593 -1.2257,4.1108 -4.5338,8.1697 -8.6162,6.8596"
       style="fill:#fcd213;fill-opacity:1;fill-rule:evenodd;stroke:none"
       transform="matrix(1.3333333,0,0,-1.3333333,0,793.7008)" />
    <path
       id="path62"
       d="m 261.0709,350.6108 c -3.5793,2.389 -8.7268,3.3763 -11.0226,-0.2645 -1.4609,-2.319 0.7833,-6.3788 0,-7.0616 -0.7721,-0.6821 -5.7231,4.5773 -7.2912,2.2059 -2.7964,-4.2302 2.5631,-9.3708 1.3073,-11.2618 -0.707,-1.0669 -2.3955,2.3919 -3.9529,0.0352 -2.0242,-3.0612 1.2353,-5.8819 0.4629,-9.413 1.002,0.288 1.6098,0.1927 1.6098,0.1927 0,0 11.3746,15.3482 15.6127,20.6773 0.1615,0.1956 0.4016,0.0964 0.2364,-0.1681 -2.3296,-3.5852 -13.8045,-21.1348 -13.8045,-21.1348 0.2268,-0.1944 1.4998,-1.1282 1.9735,-2.696 2.8375,5.0335 7.2916,2.3839 7.9713,3.5405 1.3901,2.4375 -2.2654,2.2518 -1.5582,3.3012 1.2393,1.8978 8.0742,-1.0222 10.8746,3.2119 1.572,2.3607 -5.2127,4.8586 -4.8827,5.8468 0.3189,0.9816 4.9306,0.494 6.5092,2.7626 2.4463,3.5385 -0.4632,7.8582 -4.0456,10.2257"
       style="fill:#fcd213;fill-opacity:1;fill-rule:evenodd;stroke:none"
       transform="matrix(1.3333333,0,0,-1.3333333,0,793.7008)" />
    <path
       id="path63"
       d="m 236.1651,366.3675 c -0.1505,-1.0457 -7.3261,-0.1849 -7.0208,-3.0124 0.5932,-5.0366 7.9917,-5.525 8.2525,-7.7825 0.1516,-1.2694 -3.3804,0.2848 -3.0535,-2.5223 0.4223,-3.6465 4.7177,-3.6952 6.4023,-6.9177 0.6012,0.8861 1.1225,1.1906 1.1225,1.1906 0,8e-4 -1.1497,19.0658 -1.3345,25.8803 0,0.2676 0.25,0.3436 0.3016,0.0204 0.5116,-4.2446 2.9959,-25.0495 2.9959,-25.0495 0.2985,-0.0167 1.8627,0.0856 3.2565,-0.82 -1.071,5.6863 4.0561,6.5267 3.8188,7.8514 -0.4941,2.7654 -3.1672,0.2636 -3.3284,1.5233 -0.254,2.2575 6.866,4.4093 6.2767,9.4467 -0.3231,2.8171 -7.1036,0.3813 -7.5016,1.3318 -0.3841,0.9705 3.4659,3.5688 3.2187,6.3031 -0.3977,4.2797 -5.415,5.7339 -9.6803,5.2534 -4.2749,-0.4864 -8.8534,-3.0367 -8.259,-7.2952 0.3637,-2.7343 4.6834,-4.3917 4.5326,-5.4014"
       style="fill:#fcd213;fill-opacity:1;fill-rule:evenodd;stroke:none"
       transform="matrix(1.3333333,0,0,-1.3333333,0,793.7008)" />
  </g>
</svg>
