<?xml version="1.0" encoding="UTF-8" standalone="no"?>
<!-- Placeholder logo - replace with actual logos -->

<svg
   viewBox="0 0 100 100"
   class="w-full h-full"
   version="1.1"
   id="svg1"
   sodipodi:docname="wcr.svg"
   inkscape:version="1.4 (86a8ad7, 2024-10-11)"
   inkscape:export-filename="C:\xampp\htdocs\CTFxD\public\img\opw.png"
   inkscape:export-xdpi="96"
   inkscape:export-ydpi="96"
   xml:space="preserve"
   xmlns:inkscape="http://www.inkscape.org/namespaces/inkscape"
   xmlns:sodipodi="http://sodipodi.sourceforge.net/DTD/sodipodi-0.dtd"
   xmlns="http://www.w3.org/2000/svg"
   xmlns:svg="http://www.w3.org/2000/svg"><defs
     id="defs1" /><sodipodi:namedview
     id="namedview1"
     pagecolor="#ffffff"
     bordercolor="#000000"
     borderopacity="0.25"
     inkscape:showpageshadow="2"
     inkscape:pageopacity="0.0"
     inkscape:pagecheckerboard="0"
     inkscape:deskcolor="#d1d1d1"
     inkscape:zoom="2.38"
     inkscape:cx="64.705882"
     inkscape:cy="151.89076"
     inkscape:window-width="1920"
     inkscape:window-height="991"
     inkscape:window-x="-9"
     inkscape:window-y="-9"
     inkscape:window-maximized="1"
     inkscape:current-layer="svg1"
     inkscape:export-bgcolor="#ffffffff" /><g
     id="g1"
     transform="translate(-0.42016763,0.42016874)"><path
       style="fill:#6991a1"
       d="m 53.393854,97.003397 c -0.181751,-0.125479 -0.143532,-0.142632 0.159387,-0.07153 0.219157,0.05144 0.714483,-0.02029 1.100724,-0.159405 0.386241,-0.139111 0.730818,-0.223791 0.765726,-0.188178 0.0718,0.07326 -1.352893,0.590497 -1.615916,0.586663 -0.09396,-0.0014 -0.278427,-0.07677 -0.409921,-0.167547 z m -1.952489,-0.8969 c -0.767049,-0.398893 -1.394635,-0.761792 -1.394635,-0.806442 0,-0.0727 2.853081,1.333122 3.015068,1.485635 0.232514,0.218917 -0.416583,-0.05315 -1.620433,-0.679193 z m 4.662066,0.09129 c 0.306819,-0.171371 0.629578,-0.311584 0.71724,-0.311584 0.08766,0 -0.09165,0.140213 -0.398467,0.311584 -0.306819,0.171372 -0.629578,0.311585 -0.717241,0.311585 -0.08766,0 0.09165,-0.140213 0.398468,-0.311585 z m 0.956321,-0.353448 c 0.160595,-0.16131 3.187737,-1.769361 3.187737,-1.693361 0,0.09152 -2.478624,1.483888 -2.948657,1.656408 -0.175326,0.06435 -0.282912,0.08098 -0.23908,0.03695 z m -8.00919,-1.039409 c -0.416398,-0.221136 -0.757087,-0.438482 -0.757087,-0.482992 0,-0.04451 0.35862,0.104473 0.796934,0.331072 0.438314,0.2266 0.796934,0.447353 0.796934,0.490564 0,0.107557 0.01434,0.11336 -0.836781,-0.338644 z m -2.064594,-1.177553 c -0.587634,-0.336808 -1.125564,-0.676969 -1.195401,-0.755913 -0.147935,-0.167228 2.030641,1.024661 2.255858,1.234169 0.275441,0.25623 0.02009,0.141069 -1.060457,-0.478256 z m 13.420908,0.417722 c 0.04383,-0.05239 1.155554,-0.827076 2.470496,-1.721519 2.868811,-1.951408 5.313937,-3.915686 8.15632,-6.552336 5.018575,-4.655326 10.353404,-10.853411 13.839192,-16.078581 0.686125,-1.028496 1.317996,-1.943167 1.404158,-2.032602 0.248151,-0.257577 -0.01748,0.189321 -1.044313,1.756971 -4.703022,7.18001 -12.740181,15.854305 -19.486394,21.031151 -1.745322,1.33931 -5.653025,3.971725 -5.339459,3.596916 z m -16.837357,-2.45878 c -4.121192,-2.570976 -4.918287,-3.266008 -4.108979,-3.582845 0.388901,-0.152251 0.496836,-0.107655 0.186198,0.07693 -0.15341,0.09116 -0.278927,0.264455 -0.278927,0.385102 0,0.211427 2.668055,2.054523 5.060532,3.495823 1.005141,0.605527 1.296488,0.821686 1.1075,0.821686 -0.02643,0 -0.911276,-0.538514 -1.966324,-1.196698 z M 28.39621,90.589705 c -3.514098,-2.894574 -7.349789,-7.225779 -11.149212,-12.589526 -0.726456,-1.025556 -1.299299,-1.9787 -1.272986,-2.118097 0.04991,-0.26438 0.548528,-0.45996 6.897259,-2.705394 26.585293,-9.402752 36.477952,-14.101927 51.641342,-24.530484 3.902342,-2.68382 9.636002,-6.846693 10.439839,-7.579753 l 0.557854,-0.508736 -0.717241,0.399788 c -0.394483,0.219884 -2.008274,1.16451 -3.586204,2.099171 -14.693095,8.703207 -35.091076,19.395476 -49.7287,26.066925 -4.328311,1.972732 -10.348817,4.450646 -11.126348,4.579372 -0.507858,0.08408 -0.584443,0.03776 -1.022061,-0.618193 -2.086958,-3.128161 -4.670713,-8.362827 -5.684082,-11.515903 -0.722223,-2.247182 -1.481672,-5.826539 -1.324757,-6.243716 0.04646,-0.123514 0.43102,-0.422953 0.854581,-0.665419 1.074464,-0.615073 9.722225,-4.891765 19.816842,-9.800287 10.721027,-5.213114 11.967103,-5.84873 16.655927,-8.496095 2.103906,-1.18789 5.582525,-3.14808 7.730262,-4.355979 2.147738,-1.207898 4.543116,-2.559275 5.323062,-3.00306 0.779946,-0.443785 4.545461,-2.566181 8.36781,-4.716436 3.82235,-2.150256 7.401469,-4.164406 7.953598,-4.47589 0.552129,-0.311485 0.969812,-0.601083 0.928185,-0.643551 -0.04163,-0.04247 -3.541643,1.749733 -7.777813,3.982671 -8.751991,4.613284 -17.123763,9.002198 -23.640812,12.393734 -2.454558,1.277376 -5.180073,2.704184 -6.056701,3.170685 C 34.359419,43.034724 7.4411734,56.862126 7.2755367,56.797281 7.0540469,56.71057 6.6166056,55.291106 6.4639012,54.163585 c -0.04845,-0.357738 0.076395,-0.0104 0.277432,0.771851 0.2010375,0.782255 0.4449066,1.503271 0.5419315,1.602257 C 7.4401895,56.697789 19.347864,50.647041 33.07203,43.433428 34.474634,42.696199 37.773942,40.974651 40.403825,39.607764 66.674171,25.953701 86.987448,15.204708 89.076375,13.852149 89.660089,13.4742 89.737867,13.366292 89.554535,13.188756 89.066658,12.716301 81.934064,9.5111341 78.510345,8.225839 76.007019,7.2860677 68.928605,5.1372352 68.336254,5.1372352 c -1.540933,0 -14.974373,6.1648868 -39.328589,18.0487108 -4.42697,2.160174 -8.156623,3.960421 -8.288117,4.000549 C 20.1756,27.35249 25.612678,24.646363 33.390803,20.879793 56.098027,9.8837835 66.883999,4.974627 68.336254,4.974627 c 0.559164,0 7.581536,2.1171069 10.054077,3.0311062 2.156026,0.7969965 6.700783,2.7751478 9.630318,4.1916928 1.250074,0.60446 1.872795,0.992796 1.872795,1.167898 0,0.338846 0.03896,0.321908 2.655842,-1.154599 1.201009,-0.677639 2.296145,-1.210261 2.433635,-1.183607 0.68012,0.131853 1.980446,3.218516 2.622179,6.224423 0.940651,4.406058 0.616386,9.842507 -0.842881,14.131308 -0.270953,0.796331 -0.618306,1.663497 -0.771898,1.927037 -0.165275,0.283588 -1.352564,1.219135 -2.908884,2.292112 l -2.629629,1.81295 -0.274982,2.845642 c -0.930871,9.633088 -3.34478,21.585651 -4.617761,22.865029 -0.202143,0.203159 -1.837877,1.150817 -3.634964,2.105908 -6.581204,3.497685 -51.643909,26.413231 -51.940794,26.413231 -0.168427,0 -0.882621,-0.474774 -1.587097,-1.055053 z M 50.245678,81.244949 C 70.6593,70.859837 83.472138,64.268205 84.816688,63.459714 c 0.597891,-0.359518 0.8044,-0.609126 1.070096,-1.29343 1.047308,-2.697351 2.295231,-8.545137 3.286668,-15.401369 0.390968,-2.703722 0.74526,-5.600902 0.878081,-7.180408 0.08767,-1.042605 0.199524,-2.002305 0.248558,-2.132668 0.04903,-0.130363 1.197139,-0.986622 2.551345,-1.902798 1.354205,-0.916176 2.634488,-1.874675 2.845072,-2.129998 0.423837,-0.513881 1.394219,-3.341767 1.753535,-5.11015 0.474509,-2.335303 0.630802,-5.162978 0.425055,-7.690155 -0.378537,-4.649542 -2.119474,-9.793356 -3.176621,-9.385717 -0.339295,0.130833 -4.404628,2.402114 -13.33223,7.448647 -3.944824,2.229903 -7.638615,4.313677 -8.208423,4.630608 -0.569808,0.316932 -1.968427,1.102534 -3.108043,1.745782 -1.139616,0.643248 -3.865132,2.175846 -6.056701,3.405772 -2.191569,1.229927 -4.594326,2.585121 -5.33946,3.011542 -0.745133,0.426421 -3.14789,1.783055 -5.339459,3.014743 -2.19157,1.231688 -4.998724,2.813375 -6.238121,3.51486 -1.239397,0.701485 -4.825602,2.527524 -7.969343,4.057864 -3.143741,1.53034 -8.046926,3.917446 -10.895966,5.304679 -8.499515,4.13852 -15.367192,7.614861 -15.587496,7.890216 -0.374064,0.467538 0.501056,4.558974 1.64649,7.697804 1.104115,3.025607 5.225126,10.639718 5.75857,10.639718 0.510649,0 4.63078,-1.626625 8.97937,-3.54505 15.735234,-6.941758 39.178498,-19.276697 55.915251,-29.420442 1.69318,-1.026196 3.115007,-1.828574 3.159616,-1.783063 0.169031,0.172447 -8.060959,6.266845 -13.569919,10.048675 C 59.535504,59.176965 50.113674,63.68141 24.385446,72.86047 c -4.42697,1.57941 -8.10965,2.931986 -8.183734,3.005724 -0.307422,0.305986 5.111291,7.383612 7.999354,10.448319 1.958231,2.078004 5.378084,5.167637 5.719954,5.167637 0.11098,0 9.257077,-4.60674 20.324658,-10.237201 z m -10.080933,6.497214 c 0.131494,-0.0867 0.310804,-0.157628 0.398467,-0.157628 0.08766,0 0.0518,0.07093 -0.07969,0.157628 -0.131495,0.08669 -0.310805,0.157628 -0.398468,0.157628 -0.08766,0 -0.0518,-0.07093 0.07969,-0.157628 z m 0.796934,-0.325216 c 0.131494,-0.0867 0.310805,-0.157629 0.398467,-0.157629 0.08766,0 0.0518,0.07093 -0.07969,0.157629 -0.131494,0.0867 -0.310805,0.157628 -0.398467,0.157628 -0.08766,0 -0.0518,-0.07093 0.07969,-0.157628 z m 0.65083,-0.227657 c 0.137187,-0.134372 2.114916,-0.907498 2.172135,-0.849123 0.03285,0.03352 -0.41032,0.252916 -0.984827,0.487555 -0.985918,0.402667 -1.339064,0.51021 -1.187308,0.361568 z m 2.696294,-1.140756 c 0.219157,-0.119424 0.577778,-0.262678 0.796934,-0.318342 0.219157,-0.05566 0.111571,0.03955 -0.23908,0.211585 -0.721292,0.353881 -1.168357,0.439435 -0.557854,0.106757 z m 2.052813,-0.830359 c 0.471576,-0.228287 0.886965,-0.384915 0.923087,-0.348064 0.03612,0.03685 -0.242128,0.193953 -0.618331,0.349113 -1.090562,0.449787 -1.235032,0.44929 -0.304756,-10e-4 z m 1.148207,-0.468365 c 0.138825,-0.136725 3.225655,-1.400034 3.281557,-1.343002 0.03228,0.03293 -0.661365,0.363299 -1.541436,0.734144 -1.484612,0.625587 -1.907262,0.77347 -1.740121,0.608858 z m 4.433156,-1.901112 c 0.560792,-0.263423 1.046728,-0.451296 1.079859,-0.417496 0.06669,0.06804 -1.816743,0.927687 -1.990446,0.908494 -0.05997,-0.0066 0.349795,-0.227576 0.910587,-0.490998 z m 1.610262,-0.716515 c 0.219157,-0.127814 0.470191,-0.232388 0.557854,-0.232388 0.08766,0 -0.01992,0.104574 -0.23908,0.232388 -0.219157,0.127813 -0.470192,0.232388 -0.557854,0.232388 -0.08766,0 0.01992,-0.104575 0.23908,-0.232388 z m 1.115708,-0.487825 c 0.219157,-0.127813 0.470191,-0.232388 0.557854,-0.232388 0.08766,0 -0.01992,0.104575 -0.23908,0.232388 -0.219157,0.127814 -0.470192,0.232388 -0.557854,0.232388 -0.08766,0 0.01992,-0.104574 0.23908,-0.232388 z m 2.055796,-0.893722 c 0.736205,-0.361392 1.365416,-0.629673 1.398245,-0.59618 0.05994,0.06115 -2.050102,1.064315 -2.49772,1.187474 -0.131494,0.03618 0.36327,-0.229902 1.099475,-0.591294 z m 2.868963,-1.300865 c 0.736206,-0.361392 1.365416,-0.629673 1.398246,-0.59618 0.05994,0.06115 -2.050102,1.064315 -2.497721,1.187474 -0.131494,0.03618 0.36327,-0.229902 1.099475,-0.591294 z m 3.986673,-1.881522 c 1.17562,-0.576391 2.162674,-1.022292 2.193455,-0.990889 0.06597,0.0673 -4.037644,2.063381 -4.21202,2.048811 -0.06541,-0.0055 0.842945,-0.48153 2.018565,-1.057922 z m 2.840692,-1.391441 c 0.108118,-0.111129 0.236728,-0.161091 0.285801,-0.111026 0.04907,0.05007 -0.03939,0.140989 -0.196577,0.202053 -0.227158,0.08825 -0.245466,0.06957 -0.08922,-0.09103 z m 0.85272,-0.367821 c 0.162111,-0.153253 3.971389,-2.045069 3.971389,-1.972326 0,0.0899 -3.75552,2.035109 -3.929092,2.035109 -0.05979,0 -0.07882,-0.02825 -0.0423,-0.06278 z m 4.210469,-2.164041 c 0.08766,-0.0897 1.020076,-0.622383 2.072029,-1.183731 1.051954,-0.561348 1.840919,-0.945785 1.753256,-0.854305 -0.08766,0.09148 -1.020076,0.624158 -2.072029,1.18373 -1.051954,0.559572 -1.840918,0.94401 -1.753256,0.854306 z m 4.064365,-2.236548 c 0,-0.04472 0.215172,-0.194823 0.478161,-0.333568 0.262988,-0.138745 0.47816,-0.215677 0.47816,-0.17096 0,0.04472 -0.215172,0.194823 -0.47816,0.333568 -0.262989,0.138745 -0.478161,0.215677 -0.478161,0.17096 z m 1.120526,-0.621583 c 0.04648,-0.05568 1.014757,-0.673864 2.151723,-1.373744 1.136966,-0.699879 2.282383,-1.406634 2.545371,-1.570566 0.366256,-0.228302 0.403557,-0.234299 0.159387,-0.02563 -0.619957,0.52983 -5.113499,3.277813 -4.856481,2.969936 z m 5.254948,-3.278349 c 0,-0.04533 0.52,-0.442058 1.155555,-0.88163 1.573227,-1.088098 3.304912,-2.505674 4.764747,-3.900472 0.670114,-0.64026 1.261838,-1.164109 1.314942,-1.164109 0.188319,0 0.09204,0.51954 -0.243936,1.316321 -0.187268,0.444114 -0.367448,0.779976 -0.4004,0.746358 -0.03295,-0.03362 0.0904,-0.407795 0.274112,-0.831503 0.183714,-0.423709 0.294688,-0.810513 0.246609,-0.859564 -0.04808,-0.04905 -0.633304,0.430919 -1.3005,1.066599 -1.720812,1.639528 -5.811129,4.812602 -5.811129,4.508 z m 4.682585,-0.451822 c 0.141669,-0.242444 0.515383,-0.9193 0.830475,-1.504125 0.315092,-0.584825 0.607226,-1.063318 0.649186,-1.063318 0.118302,0 -1.061365,2.174575 -1.418921,2.61561 l -0.318321,0.39264 z M 6.0058328,52.014472 C 5.6540271,50.02027 5.2892434,47.366569 5.1948069,46.114483 5.141842,45.412248 5.19276,45.603251 5.346527,46.683611 c 0.1272915,0.894345 0.4121493,2.752708 0.6330173,4.129696 0.220868,1.376989 0.3738304,2.531924 0.3399165,2.566523 -0.033914,0.0346 -0.1750465,-0.579812 -0.313628,-1.365358 z m -1.1373075,-8.50985 c -0.062542,-0.815633 -0.079922,-1.517442 -0.038622,-1.559577 0.0413,-0.04213 0.1268175,0.590161 0.1900398,1.4051 0.063222,0.814939 0.080602,1.516748 0.038622,1.559577 -0.04198,0.04283 -0.127498,-0.589467 -0.1900398,-1.4051 z M 4.6692382,40.911023 c 0,-0.49189 0.02988,-0.693117 0.066399,-0.447173 0.036519,0.245945 0.036519,0.6484 0,0.894345 -0.036519,0.245945 -0.066399,0.04472 -0.066399,-0.447172 z M 4.3830536,37.671829 c -0.063183,-1.24495 -0.066594,-2.343249 -0.00758,-2.440665 0.059014,-0.09742 1.1874589,-0.704202 2.5076561,-1.348413 l 2.4003586,-1.171294 -0.10031,-3.258235 C 8.8472034,18.540198 8.741707,13.890748 8.8250378,13.669203 8.9988608,13.207072 14.079039,10.98856 18.249052,9.553738 33.606361,4.2695812 50.944103,1.8146648 58.972394,3.7875658 60.175299,4.083172 60.542365,4.3322625 60.201,4.6212963 59.937812,4.844138 56.830037,6.5327838 42.874321,14.035949 30.897045,20.475425 23.480767,24.535861 18.806906,27.212937 c -3.519202,2.015714 -6.216087,3.624702 -6.216087,3.708577 0,0.08918 1.395385,-0.560403 4.608087,-2.145153 1.701652,-0.839384 3.11844,-1.50113 3.148419,-1.470546 0.02998,0.03059 -2.294696,1.213033 -5.165942,2.627662 -2.871246,1.41463 -6.4638923,3.201044 -7.983658,3.96981 l -2.7632103,1.397755 0.1100503,2.317166 c 0.060528,1.274441 0.074796,2.317166 0.031708,2.317166 -0.043088,0 -0.130037,-1.018595 -0.1932194,-2.263545 z M 10.847626,31.50653 c 4.42491,-2.689807 8.928504,-5.270835 15.450462,-8.854721 2.761378,-1.517407 5.451031,-2.995677 5.977007,-3.285044 0.525977,-0.289367 1.673562,-0.911183 2.55019,-1.381813 3.012723,-1.617421 4.627434,-2.488069 7.092715,-3.824372 1.358773,-0.736521 4.191875,-2.259475 6.295781,-3.384341 C 57.138737,6.0044563 59.514968,4.6961784 59.571547,4.523009 59.648354,4.2879333 58.322045,3.9047822 56.581591,3.6592543 53.957729,3.2891029 47.148287,3.4646738 43.432175,3.9982915 38.74446,4.6714274 37.361876,4.8986183 34.904979,5.3995089 29.092284,6.58455 22.858198,8.290365 17.770891,10.08786 c -3.107825,1.098086 -6.807364,2.627174 -8.0091892,3.310348 -0.8041252,0.457102 -0.7464823,-0.379609 -0.5175193,7.512015 0.2730406,9.410839 0.3480214,11.219961 0.4650216,11.219961 0.061859,0 0.5741489,-0.280644 1.1384219,-0.623654 z"
       id="path7" /><path
       style="fill:#5f9068"
       d="m 52.01868,96.219564 c -4.767351,-2.378461 -12.713724,-7.292602 -12.61742,-7.802776 0.03082,-0.163284 0.808758,-0.563814 2.119499,-1.091251 23.444819,-9.434099 39.399179,-17.831705 46.214471,-24.325071 0.667196,-0.63568 1.250609,-1.117498 1.296473,-1.070706 0.141218,0.144072 -0.717767,2.066096 -1.725236,3.860306 -4.242377,7.555286 -12.60052,17.24195 -20.211107,23.423648 -2.616732,2.12544 -6.529316,4.736663 -9.013847,6.015761 -1.946335,1.00202 -3.82512,1.781351 -4.294424,1.781351 -0.100328,0 -0.896112,-0.356068 -1.768409,-0.791262 z m 3.101245,0.199435 c 8.594842,-3.469787 19.221421,-12.688431 27.527918,-23.880696 2.769238,-3.731301 6.122436,-9.291488 5.940064,-9.849662 -0.02863,-0.08764 -0.519731,0.263343 -1.091326,0.779957 -7.040254,6.363058 -20.856367,13.698804 -42.945789,22.802315 -2.628284,1.08317 -4.838232,2.030138 -4.910996,2.104373 -0.163353,0.166655 0.785393,0.86573 3.473606,2.559495 3.824404,2.409646 10.175184,5.913437 10.718372,5.913437 0.123724,0 0.703392,-0.193149 1.288151,-0.429219 z m -26.11226,-5.600967 -0.717241,-0.663238 0.770241,0.612958 c 0.682305,0.542979 0.818781,0.593186 1.195402,0.439769 0.894468,-0.364364 1.043068,-0.384197 0.504853,-0.06738 -0.779513,0.458856 -0.940733,0.429236 -1.753255,-0.322109 z m 2.6205,-0.221256 c 0.170165,-0.139086 0.37936,-0.252883 0.464878,-0.252883 0.202508,0 0.112087,0.07511 -0.375802,0.312161 -0.375717,0.182551 -0.380803,0.179166 -0.08908,-0.05928 z m -3.907658,-0.862664 -0.386404,-0.447172 0.438314,0.394213 c 0.40967,0.368452 0.511407,0.500132 0.386403,0.500132 -0.02855,0 -0.225791,-0.201228 -0.438313,-0.447173 z M 24.941,87.051078 22.871271,84.896521 24.983147,87.00808 c 1.961756,1.961462 2.184116,2.197556 2.069729,2.197556 -0.02318,0 -0.973525,-0.969551 -2.111876,-2.154558 z m 15.715188,-0.994274 c 0.03653,-0.0326 0.245721,-0.146401 0.464878,-0.252883 0.375718,-0.182551 0.380803,-0.179167 0.08908,0.05928 -0.253903,0.20753 -0.772686,0.388842 -0.553955,0.193605 z m -18.432491,-1.932672 -0.468134,-0.528476 0.518007,0.477595 c 0.284904,0.262677 0.518007,0.500491 0.518007,0.528476 0,0.125625 -0.131514,0.01502 -0.56788,-0.477595 z m 22.257775,-0.01997 c 0.164017,-0.149724 1.102426,-0.589683 1.102426,-0.516856 0,0.09366 -0.883612,0.57748 -1.054664,0.57748 -0.0628,0 -0.08429,-0.02728 -0.04776,-0.06062 z m -23.13644,-1.036981 -0.386403,-0.447172 0.438313,0.394213 c 0.409671,0.368452 0.511407,0.500132 0.386404,0.500132 -0.02855,0 -0.225792,-0.201228 -0.438314,-0.447173 z m 24.411535,0.38543 c 0.16259,-0.151159 1.739973,-0.910926 1.739973,-0.838081 0,0.09168 -1.522139,0.899824 -1.694828,0.899824 -0.06136,0 -0.08167,-0.02778 -0.04515,-0.06174 z m -25.131856,-1.279774 -0.30363,-0.365869 0.358621,0.309767 c 0.337014,0.291104 0.431179,0.42197 0.30363,0.42197 -0.03025,0 -0.191624,-0.164641 -0.358621,-0.365868 z m 27.031216,0.301961 c 0,-0.03515 0.111311,-0.107484 0.247359,-0.160745 0.141842,-0.05553 0.205819,-0.02827 0.14998,0.06391 -0.0936,0.154511 -0.397339,0.228538 -0.397339,0.09684 z m -27.668763,-1.115002 -0.30363,-0.365868 0.35862,0.309766 c 0.337015,0.291104 0.43118,0.42197 0.30363,0.42197 -0.03024,0 -0.191624,-0.16464 -0.35862,-0.365868 z m 29.594688,0.142636 c 0.164016,-0.149724 1.102425,-0.589683 1.102425,-0.516856 0,0.09366 -0.883612,0.57748 -1.054663,0.57748 -0.0628,0 -0.08429,-0.02728 -0.04776,-0.06062 z M 19.424123,80.628057 c -0.198257,-0.257905 -0.192619,-0.263657 0.06018,-0.06139 0.15341,0.122744 0.278927,0.250798 0.278927,0.284564 0,0.133832 -0.130886,0.04769 -0.339104,-0.223171 z m 31.432824,0.221196 c 0.162181,-0.154752 14.809695,-7.571236 14.809695,-7.498601 0,0.08894 -14.595457,7.56197 -14.769171,7.56197 -0.05881,0 -0.07705,-0.02852 -0.04052,-0.06337 z M 18.786575,79.815017 c -0.198256,-0.257906 -0.192619,-0.263657 0.06018,-0.06139 0.15341,0.122744 0.278927,0.250798 0.278927,0.284564 0,0.133832 -0.130886,0.04769 -0.339105,-0.22317 z m -0.47816,-0.650433 c -0.198257,-0.257905 -0.192619,-0.263657 0.06018,-0.06139 0.15341,0.122744 0.278927,0.250797 0.278927,0.284564 0,0.133832 -0.130886,0.04769 -0.339104,-0.223171 z m -0.617217,-0.853692 c -0.187264,-0.268304 -0.304618,-0.487825 -0.260787,-0.487825 0.04383,0 0.23291,0.219521 0.420174,0.487825 0.187264,0.268303 0.304618,0.487824 0.260787,0.487824 -0.04383,0 -0.23291,-0.219521 -0.420174,-0.487824 z M 17.03332,77.375895 c -0.198257,-0.257906 -0.192619,-0.263657 0.06018,-0.06139 0.15341,0.122744 0.278927,0.250798 0.278927,0.284565 0,0.133832 -0.130886,0.04769 -0.339104,-0.223171 z m -0.78221,-1.104497 c -0.165966,-0.204018 -0.165244,-0.287434 0.0039,-0.447172 0.163614,-0.154545 0.183015,-0.15156 0.09109,0.01402 -0.06424,0.11571 -0.03012,0.316938 0.07583,0.447172 0.105943,0.130234 0.156762,0.236789 0.112931,0.236789 -0.04383,0 -0.171505,-0.112861 -0.283719,-0.250804 z m 2.068409,-5.155916 c -1.560912,-2.661091 -3.382579,-6.331574 -4.049794,-8.159944 -1.145434,-3.13883 -2.020554,-7.230266 -1.64649,-7.697804 0.220304,-0.275355 7.087981,-3.751696 15.587496,-7.890216 2.84904,-1.387233 7.752225,-3.774339 10.895966,-5.304679 3.143741,-1.53034 6.729946,-3.356379 7.969343,-4.057864 1.239397,-0.701485 4.046551,-2.283172 6.238121,-3.51486 2.191569,-1.231688 4.594326,-2.588322 5.339459,-3.014743 0.745134,-0.426421 3.147891,-1.781615 5.33946,-3.011542 2.191569,-1.229926 4.917085,-2.762524 6.056701,-3.405772 1.139616,-0.643248 2.538235,-1.42885 3.108043,-1.745782 0.569808,-0.316931 4.263599,-2.400705 8.208423,-4.630608 8.927602,-5.046533 12.992935,-7.317814 13.33223,-7.448647 1.057147,-0.407639 2.798084,4.736175 3.176621,9.385717 0.205747,2.527177 0.04945,5.354852 -0.425055,7.690155 -0.359316,1.768383 -1.329698,4.596269 -1.753535,5.11015 -0.210584,0.255323 -1.496896,1.217901 -2.85847,2.139062 -1.603253,1.084667 -2.499872,1.792854 -2.544499,2.009753 -0.0379,0.184203 -0.09924,0.481262 -0.13632,0.660131 -0.03708,0.178869 -0.07463,0.06911 -0.08346,-0.243913 -0.0088,-0.31302 0.03665,-0.647897 0.101051,-0.74417 0.0644,-0.09627 1.319912,-0.998502 2.790016,-2.004953 2.955809,-2.023583 2.775215,-1.801299 3.645394,-4.486938 0.874873,-2.700127 1.139922,-4.90592 1.04534,-8.699535 -0.0624,-2.50274 -0.163245,-3.698175 -0.404671,-4.796939 -0.664635,-3.024847 -1.801423,-5.772589 -2.388218,-5.772589 -0.240334,0 -4.100073,2.13765 -18.198338,10.078836 -1.709424,0.962874 -4.79356,2.699464 -6.853635,3.859088 -2.060075,1.159624 -5.538693,3.118514 -7.730262,4.353088 -16.669186,9.390231 -17.579089,9.880483 -25.467036,13.721549 -4.402312,2.143723 -9.080066,4.42439 -10.395007,5.068149 -1.314942,0.643759 -3.323216,1.625807 -4.462832,2.18233 -4.751104,2.320164 -8.988305,4.523882 -9.058834,4.711392 -0.110288,0.293216 0.439773,3.198957 0.921109,4.865828 0.593417,2.05501 1.343267,3.971287 2.395293,6.121286 1.146308,2.34268 3.734351,6.833585 3.997455,6.936588 0.244156,0.09558 4.586205,-1.599072 8.518918,-3.324846 16.506566,-7.243495 40.954708,-20.183316 58.794942,-31.118766 0.997778,-0.611603 1.876398,-1.112006 1.952489,-1.112006 0.380692,0 -0.006,0.402125 -1.495367,1.554986 -0.898543,0.695535 -1.72337,1.334309 -1.832948,1.419499 -0.109579,0.08519 -0.199234,0.119488 -0.199234,0.07622 0,-0.04327 0.540398,-0.500951 1.200885,-1.017067 0.660486,-0.516116 1.167195,-0.972763 1.126019,-1.014771 -0.04118,-0.04201 -1.460194,0.763236 -3.153374,1.789432 -16.736753,10.143745 -40.180017,22.478684 -55.915251,29.420442 -4.34859,1.918425 -8.468721,3.54505 -8.97937,3.54505 -0.158001,0 -0.804751,-0.938563 -1.708776,-2.479774 z m 4.472058,2.317166 c 0.131495,-0.0867 0.310805,-0.157628 0.398468,-0.157628 0.08766,0 0.0518,0.07093 -0.07969,0.157628 -0.131494,0.0867 -0.310804,0.157628 -0.398467,0.157628 -0.08766,0 -0.0518,-0.07093 0.07969,-0.157628 z m 44.322829,-0.873665 c 0.164016,-0.149724 1.102426,-0.589683 1.102426,-0.516856 0,0.09366 -0.883612,0.57748 -1.054664,0.57748 -0.06279,0 -0.08429,-0.02728 -0.04776,-0.06062 z M 25.979315,72.294391 c 0.131494,-0.0867 0.310804,-0.157628 0.398467,-0.157628 0.08766,0 0.0518,0.07093 -0.07969,0.157628 -0.131494,0.08669 -0.310804,0.157628 -0.398467,0.157628 -0.08766,0 -0.0518,-0.07093 0.07969,-0.157628 z m 42.72896,-0.549567 c 0.16259,-0.151159 1.739973,-0.910926 1.739973,-0.838081 0,0.09168 -1.52214,0.899824 -1.694828,0.899824 -0.06136,0 -0.08167,-0.02778 -0.04515,-0.06174 z m -32.528202,-3.19042 c 0.131495,-0.0867 0.310805,-0.157628 0.398468,-0.157628 0.08766,0 0.0518,0.07093 -0.07969,0.157628 -0.131494,0.0867 -0.310804,0.157628 -0.398467,0.157628 -0.08766,0 -0.0518,-0.07093 0.07969,-0.157628 z m 1.275095,-0.487824 c 0.131494,-0.0867 0.310805,-0.157628 0.398467,-0.157628 0.08766,0 0.0518,0.07093 -0.07969,0.157628 -0.131494,0.08669 -0.310804,0.157628 -0.398467,0.157628 -0.08766,0 -0.0518,-0.07093 0.07969,-0.157628 z m 2.55019,-0.975649 c 0.131494,-0.0867 0.310804,-0.157628 0.398467,-0.157628 0.08766,0 0.0518,0.07093 -0.07969,0.157628 -0.131494,0.0867 -0.310805,0.157628 -0.398467,0.157628 -0.08766,0 -0.0518,-0.07093 0.07969,-0.157628 z m 37.615298,0.08402 c 0,-0.04472 0.788965,-0.484982 1.753256,-0.978366 0.96429,-0.493384 1.753255,-0.860474 1.753255,-0.815757 0,0.04472 -0.788965,0.484982 -1.753255,0.978365 -0.964291,0.493384 -1.753256,0.860475 -1.753256,0.815758 z M 42.077387,66.27789 c 0.131494,-0.0867 0.310805,-0.157628 0.398467,-0.157628 0.08766,0 0.0518,0.07093 -0.07969,0.157628 -0.131494,0.0867 -0.310805,0.157628 -0.398467,0.157628 -0.08766,0 -0.0518,-0.07093 0.07969,-0.157628 z m 0.796934,-0.325216 c 0.131495,-0.0867 0.310805,-0.157628 0.398468,-0.157628 0.08766,0 0.0518,0.07093 -0.07969,0.157628 -0.131494,0.0867 -0.310804,0.157628 -0.398467,0.157628 -0.08766,0 -0.0518,-0.07093 0.07969,-0.157628 z m 0.796935,-0.325216 c 0.131494,-0.0867 0.310804,-0.157628 0.398467,-0.157628 0.08766,0 0.0518,0.07093 -0.07969,0.157628 -0.131494,0.08669 -0.310804,0.157628 -0.398467,0.157628 -0.08766,0 -0.0518,-0.07093 0.07969,-0.157628 z m 0.796934,-0.325216 c 0.131494,-0.0867 0.310804,-0.157629 0.398467,-0.157629 0.08766,0 0.0518,0.07093 -0.07969,0.157629 -0.131494,0.08669 -0.310805,0.157628 -0.398467,0.157628 -0.08766,0 -0.0518,-0.07093 0.07969,-0.157628 z m 36.831646,-0.05928 c 0.03653,-0.0326 0.245722,-0.146401 0.464879,-0.252883 0.375717,-0.182551 0.380803,-0.179167 0.08908,0.05928 -0.253903,0.207529 -0.772685,0.388841 -0.553955,0.193605 z M 46.380832,64.489201 c 0.131494,-0.0867 0.310805,-0.157628 0.398467,-0.157628 0.08766,0 0.0518,0.07093 -0.07969,0.157628 -0.131494,0.0867 -0.310804,0.157628 -0.398467,0.157628 -0.08766,0 -0.0518,-0.07093 0.07969,-0.157628 z m 0.956321,-0.40652 c 0.219157,-0.127814 0.470192,-0.232388 0.557854,-0.232388 0.08766,0 -0.01992,0.104574 -0.23908,0.232388 -0.219157,0.127813 -0.470191,0.232388 -0.557854,0.232388 -0.08766,0 0.01992,-0.104575 0.23908,-0.232388 z m 35.862043,0.168086 c 0,-0.04472 0.358621,-0.266703 0.796935,-0.493303 0.438313,-0.226599 0.796934,-0.375412 0.796934,-0.330694 0,0.04472 -0.358621,0.266703 -0.796934,0.493303 -0.438314,0.226599 -0.796935,0.375412 -0.796935,0.330694 z M 48.452861,63.594856 c 0.219157,-0.127813 0.470192,-0.232388 0.557854,-0.232388 0.08766,0 -0.01992,0.104575 -0.23908,0.232388 -0.219157,0.127814 -0.470191,0.232388 -0.557854,0.232388 -0.08766,0 0.01992,-0.104574 0.23908,-0.232388 z m 1.275095,-0.569128 c 0.131494,-0.0867 0.310805,-0.157628 0.398467,-0.157628 0.08766,0 0.0518,0.07093 -0.07969,0.157628 -0.131494,0.08669 -0.310804,0.157628 -0.398467,0.157628 -0.08766,0 -0.0518,-0.07093 0.07969,-0.157628 z M 85.54145,62.621249 c 0.145788,-0.311897 0.293364,-0.538218 0.327948,-0.502935 0.07291,0.07439 -0.410931,1.070022 -0.519994,1.070022 -0.04016,0 0.04626,-0.255189 0.192046,-0.567087 z m 0.372204,-0.815082 c 0,-0.08944 0.06953,-0.272369 0.154506,-0.40652 0.08498,-0.134152 0.154505,-0.170739 0.154505,-0.0813 0,0.08943 -0.06953,0.272368 -0.154505,0.40652 -0.08498,0.134152 -0.154506,0.170738 -0.154506,0.0813 z m -32.679187,-0.40652 c 0.131494,-0.0867 0.310805,-0.157629 0.398467,-0.157629 0.08766,0 0.0518,0.07093 -0.07969,0.157629 -0.131494,0.08669 -0.310805,0.157628 -0.398467,0.157628 -0.08766,0 -0.0518,-0.07093 0.07969,-0.157628 z m 4.781606,-2.35234 c 0,-0.04472 0.35862,-0.266703 0.796934,-0.493303 0.438314,-0.226599 0.796934,-0.375412 0.796934,-0.330694 0,0.04472 -0.35862,0.266703 -0.796934,0.493302 -0.438314,0.2266 -0.796934,0.375413 -0.796934,0.330695 z m 28.861604,-0.506853 c 0.0076,-0.189429 0.04542,-0.227961 0.0963,-0.09824 0.04604,0.117383 0.04038,0.257633 -0.01258,0.311666 -0.05296,0.05403 -0.09063,-0.04201 -0.08371,-0.213423 z m 0.159387,-0.650433 c 0.0076,-0.189429 0.04542,-0.22796 0.0963,-0.09824 0.04604,0.117383 0.04038,0.257632 -0.01258,0.311665 -0.05296,0.05403 -0.09063,-0.04201 -0.08371,-0.213423 z m 0.159387,-0.650432 c 0.0076,-0.18943 0.04542,-0.227961 0.0963,-0.09824 0.04604,0.117383 0.04038,0.257633 -0.01258,0.311666 -0.05296,0.05403 -0.09063,-0.04201 -0.08371,-0.213423 z M 61.841357,56.936275 c 0,-0.04472 0.215173,-0.194823 0.478161,-0.333568 0.262988,-0.138745 0.478161,-0.215677 0.478161,-0.17096 0,0.04472 -0.215173,0.194823 -0.478161,0.333568 -0.262988,0.138745 -0.478161,0.215677 -0.478161,0.17096 z M 7.2361387,56.496278 c -0.068674,-0.113362 -0.043905,-0.143708 0.062525,-0.0766 0.096938,0.06112 1.6859502,-0.659642 3.5311373,-1.601697 1.845187,-0.942055 3.354886,-1.67624 3.354886,-1.631523 0,0.07744 -6.6133482,3.497554 -6.763086,3.497554 -0.039455,0 -0.1229126,-0.08448 -0.1854622,-0.187733 z m 80.1196993,-0.06973 c 0.0076,-0.189429 0.04542,-0.22796 0.0963,-0.09824 0.04604,0.117382 0.04038,0.257632 -0.01258,0.311665 -0.05296,0.05403 -0.09063,-0.04201 -0.08371,-0.213423 z M 63.275839,56.126325 c 0,-0.04472 0.143448,-0.159627 0.318774,-0.255355 0.175325,-0.09573 0.318774,-0.137463 0.318774,-0.09275 0,0.04472 -0.143449,0.159627 -0.318774,0.255354 -0.175326,0.09573 -0.318774,0.137464 -0.318774,0.09275 z M 6.8654748,55.450899 c 0.00765,-0.189429 0.045416,-0.22796 0.096296,-0.09824 0.046042,0.117383 0.04038,0.257632 -0.012583,0.311665 -0.052963,0.05403 -0.090634,-0.04201 -0.083713,-0.213423 z m 57.5260722,0.02499 c 0,-0.04472 0.143448,-0.159626 0.318774,-0.255354 0.175325,-0.09573 0.318774,-0.137464 0.318774,-0.09275 0,0.04472 -0.143449,0.159627 -0.318774,0.255355 -0.175326,0.09573 -0.318774,0.137464 -0.318774,0.09275 z M 6.706088,54.800467 c 0.00765,-0.189429 0.045416,-0.22796 0.096296,-0.09824 0.046042,0.117383 0.04038,0.257633 -0.012583,0.311666 -0.052963,0.05403 -0.090634,-0.04201 -0.083713,-0.213423 z m 58.482393,0.187601 c 0,-0.04472 0.143449,-0.159627 0.318774,-0.255355 0.175326,-0.09573 0.318774,-0.137463 0.318774,-0.09275 0,0.04472 -0.143448,0.159627 -0.318774,0.255355 -0.175325,0.09573 -0.318774,0.137463 -0.318774,0.09275 z m 22.658101,-0.905787 c 0,-0.223586 0.03618,-0.315053 0.08039,-0.20326 0.04422,0.111793 0.04422,0.294727 0,0.40652 -0.04422,0.111793 -0.08039,0.02033 -0.08039,-0.20326 z M 6.5467011,53.987426 c 0.00765,-0.189429 0.045416,-0.22796 0.096296,-0.09824 0.046042,0.117383 0.04038,0.257632 -0.012583,0.311665 -0.052963,0.05403 -0.090634,-0.04201 -0.083713,-0.213423 z m 60.2356489,0.02499 c 0,-0.04472 0.143448,-0.159627 0.318774,-0.255354 0.175325,-0.09573 0.318773,-0.137464 0.318773,-0.09275 0,0.04472 -0.143448,0.159627 -0.318773,0.255355 -0.175326,0.09573 -0.318774,0.137463 -0.318774,0.09275 z M 6.3998974,53.26924 c 0,-0.223586 0.036177,-0.315053 0.080392,-0.20326 0.044216,0.111793 0.044216,0.294727 0,0.40652 -0.044216,0.111794 -0.080392,0.02033 -0.080392,-0.20326 z m 81.6060706,0 c 0,-0.223586 0.03618,-0.315053 0.08039,-0.20326 0.04422,0.111793 0.04422,0.294727 0,0.40652 -0.04422,0.111794 -0.08039,0.02033 -0.08039,-0.20326 z M 68.057445,53.19938 c 0,-0.04472 0.143448,-0.159627 0.318774,-0.255355 0.175325,-0.09573 0.318773,-0.137464 0.318773,-0.09275 0,0.04472 -0.143448,0.159626 -0.318773,0.255354 -0.175326,0.09573 -0.318774,0.137464 -0.318774,0.09275 z M 6.2405106,52.4562 c 0,-0.223587 0.036177,-0.315054 0.080392,-0.20326 0.044216,0.111793 0.044216,0.294727 0,0.40652 -0.044216,0.111793 -0.080392,0.02033 -0.080392,-0.20326 z M 88.152772,52.36134 c 0.0076,-0.189429 0.04542,-0.22796 0.0963,-0.09824 0.04604,0.117382 0.04038,0.257632 -0.01258,0.311665 -0.05296,0.05403 -0.09063,-0.04201 -0.08371,-0.213423 z M 69.33254,52.38633 c 0,-0.04472 0.143448,-0.159627 0.318773,-0.255355 0.175326,-0.09573 0.318774,-0.137463 0.318774,-0.09275 0,0.04472 -0.143448,0.159627 -0.318774,0.255355 -0.175325,0.09573 -0.318773,0.137463 -0.318773,0.09275 z M 6.0811237,51.480551 c 0,-0.223586 0.036177,-0.315053 0.080393,-0.20326 0.044216,0.111793 0.044216,0.294727 0,0.40652 -0.044216,0.111793 -0.080393,0.02033 -0.080393,-0.20326 z m 82.2436183,0 c 0,-0.223586 0.03618,-0.315053 0.08039,-0.20326 0.04421,0.111793 0.04421,0.294727 0,0.40652 -0.04422,0.111793 -0.08039,0.02033 -0.08039,-0.20326 z m -70.792931,-0.08011 c 0,-0.110155 1.294632,-0.767198 1.366737,-0.693636 0.03341,0.03409 -0.260434,0.221176 -0.652993,0.41575 -0.392559,0.194575 -0.713744,0.319624 -0.713744,0.277886 z M 5.9276428,50.586206 c 0.00325,-0.268303 0.03897,-0.358378 0.079381,-0.200165 0.040412,0.158212 0.037754,0.377733 -0.00591,0.487824 -0.04366,0.110091 -0.076724,-0.01936 -0.073475,-0.287659 z m 65.6363132,0.336659 c 0,-0.04472 0.143448,-0.159627 0.318773,-0.255355 0.175326,-0.09573 0.318774,-0.137463 0.318774,-0.09275 0,0.04472 -0.143448,0.159627 -0.318774,0.255354 -0.175325,0.09573 -0.318773,0.137464 -0.318773,0.09275 z m 16.926079,-0.336659 c 0.0032,-0.268303 0.03897,-0.358378 0.07938,-0.200165 0.04041,0.158212 0.03775,0.377733 -0.0059,0.487824 -0.04366,0.110091 -0.07672,-0.01936 -0.07347,-0.287659 z m -69.364355,0.0017 c 0,-0.04472 1.291033,-0.740637 2.868963,-1.54649 1.57793,-0.805852 2.868964,-1.4286 2.868964,-1.383882 0,0.04472 -1.291034,0.740638 -2.868964,1.54649 -1.57793,0.805853 -2.868963,1.4286 -2.868963,1.383882 z m 69.523742,-0.977362 c 0.0032,-0.268303 0.03897,-0.358377 0.07938,-0.200165 0.04041,0.158212 0.03775,0.377733 -0.0059,0.487824 -0.04366,0.110091 -0.07672,-0.01935 -0.07348,-0.287659 z M 5.7682559,49.447949 c 0.00325,-0.268303 0.03897,-0.358377 0.079381,-0.200165 0.040412,0.158212 0.037754,0.377733 -0.00591,0.487824 -0.04366,0.110091 -0.076724,-0.01935 -0.073475,-0.287659 z M 74.273532,49.134851 c 0,-0.04472 0.430345,-0.379452 0.956321,-0.743854 0.525977,-0.364403 0.956322,-0.625964 0.956322,-0.581247 0,0.04472 -0.430345,0.379452 -0.956322,0.743855 -0.525976,0.364402 -0.956321,0.625963 -0.956321,0.581246 z M 5.614775,48.390997 c 0,-0.313021 0.032801,-0.441075 0.072891,-0.284565 0.04009,0.156511 0.04009,0.412618 0,0.569129 -0.04009,0.15651 -0.072891,0.02846 -0.072891,-0.284564 z M 88.96229,47.415348 c 0,-0.223586 0.03618,-0.315053 0.08039,-0.20326 0.04422,0.111793 0.04422,0.294727 0,0.40652 -0.04422,0.111793 -0.08039,0.02033 -0.08039,-0.20326 z M 5.4553881,47.090132 c 0,-0.313021 0.032801,-0.441075 0.072891,-0.284565 0.04009,0.156511 0.04009,0.412618 0,0.569129 -0.04009,0.15651 -0.072891,0.02846 -0.072891,-0.284564 z M 89.133488,46.439699 c 0,-0.313021 0.0328,-0.441075 0.07289,-0.284564 0.04009,0.15651 0.04009,0.412618 0,0.569128 -0.04009,0.156511 -0.07289,0.02846 -0.07289,-0.284564 z m -11.353445,0.263823 c 0,-0.03377 0.125517,-0.161821 0.278927,-0.284565 0.252797,-0.202263 0.258434,-0.196511 0.06018,0.06139 -0.208219,0.270864 -0.339105,0.357003 -0.339105,0.223171 z M 27.254409,46.359367 c 0,-0.109452 1.613353,-0.929642 1.684957,-0.856591 0.03267,0.03333 -0.333088,0.256971 -0.812783,0.49699 -0.479695,0.24002 -0.872174,0.40184 -0.872174,0.359601 z m -21.9584077,-0.5701 c 0,-0.313021 0.032801,-0.441075 0.072891,-0.284565 0.04009,0.156511 0.04009,0.412618 0,0.569129 -0.04009,0.15651 -0.072891,0.02846 -0.072891,-0.284564 z M 79.373912,45.565265 c 0,-0.03377 0.125517,-0.161821 0.278927,-0.284564 0.252796,-0.202264 0.258434,-0.196512 0.06018,0.06139 -0.208218,0.270864 -0.339104,0.357003 -0.339104,0.223171 z m -50.20686,-0.179554 c 0,-0.04472 0.717241,-0.448506 1.593868,-0.897309 0.876628,-0.448804 1.593869,-0.779419 1.593869,-0.734702 0,0.04472 -0.717241,0.448506 -1.593869,0.89731 -0.876627,0.448803 -1.593868,0.779419 -1.593868,0.734701 z m 60.114011,-0.246877 c 0,-0.223586 0.03618,-0.315053 0.08039,-0.20326 0.04422,0.111793 0.04422,0.294727 0,0.40652 -0.04422,0.111793 -0.08039,0.02033 -0.08039,-0.20326 z M 5.1430475,44.488402 c 0,-0.402456 0.031083,-0.567096 0.069073,-0.365869 0.03799,0.201228 0.03799,0.530509 0,0.731737 -0.03799,0.201227 -0.069073,0.03659 -0.069073,-0.365868 z M 80.48962,44.752224 c 0,-0.03377 0.125517,-0.16182 0.278927,-0.284564 0.252796,-0.202263 0.258434,-0.196512 0.06018,0.06139 -0.208218,0.270864 -0.339104,0.357002 -0.339104,0.22317 z m 8.95083,-0.751647 c 0,-0.223586 0.03618,-0.315053 0.08039,-0.20326 0.04421,0.111793 0.04421,0.294727 0,0.40652 -0.04422,0.111793 -0.08039,0.02033 -0.08039,-0.20326 z m -7.835122,-0.06139 c 0,-0.03377 0.125517,-0.161821 0.278927,-0.284565 0.252796,-0.202263 0.258434,-0.196512 0.06018,0.06139 -0.208218,0.270864 -0.339104,0.357003 -0.339104,0.223171 z m -49.07787,-0.323101 c 0.03653,-0.0326 0.245721,-0.1464 0.464878,-0.252883 0.375718,-0.182551 0.380803,-0.179167 0.08908,0.05928 -0.253903,0.20753 -0.772686,0.388842 -0.553955,0.193605 z M 4.9713216,42.943624 c 0.00325,-0.268303 0.03897,-0.358378 0.079381,-0.200165 0.040411,0.158212 0.037754,0.377733 -0.00591,0.487824 -0.04366,0.110091 -0.076724,-0.01935 -0.073476,-0.287659 z m 77.7497144,0.182519 c 0,-0.03377 0.125517,-0.16182 0.278927,-0.284564 0.252796,-0.202264 0.258434,-0.196512 0.06018,0.06139 -0.208218,0.270864 -0.339104,0.357003 -0.339104,0.223171 z m 6.884707,-0.345127 c 0.0032,-0.268303 0.03897,-0.358378 0.07938,-0.200165 0.04041,0.158212 0.03775,0.377733 -0.0059,0.487824 -0.04366,0.110091 -0.07672,-0.01935 -0.07348,-0.287659 z M 83.75705,42.306355 c 0.262989,-0.23063 0.800919,-0.644771 1.195402,-0.920314 0.55092,-0.384813 0.60636,-0.40375 0.23908,-0.08166 -0.262988,0.23063 -0.800919,0.644771 -1.195401,0.920314 -0.550921,0.384813 -0.606361,0.403749 -0.239081,0.08166 z M 35.93161,41.814338 c 0.170165,-0.139086 0.37936,-0.252883 0.464878,-0.252883 0.202508,0 0.112087,0.07511 -0.375801,0.312161 -0.375718,0.182551 -0.380804,0.179167 -0.08908,-0.05928 z m 53.842642,-0.334187 c 0.0018,-0.357738 0.03441,-0.484938 0.07253,-0.282668 0.03812,0.20227 0.03668,0.494965 -0.0032,0.650432 -0.03989,0.155468 -0.07109,-0.01003 -0.06932,-0.367764 z M 4.8242738,41.236239 c 0,-0.402455 0.031083,-0.567096 0.069073,-0.365868 0.03799,0.201227 0.03799,0.530509 0,0.731736 -0.03799,0.201228 -0.069073,0.03659 -0.069073,-0.365868 z m 32.1527342,0.08381 c 0,-0.04472 0.860689,-0.521474 1.912642,-1.05946 1.051953,-0.537985 1.912642,-0.941568 1.912642,-0.896851 0,0.04472 -0.860689,0.521474 -1.912642,1.059459 -1.051953,0.537986 -1.912642,0.941569 -1.912642,0.896852 z m 52.959848,-1.384676 c 0,-0.402455 0.03108,-0.567096 0.06907,-0.365868 0.03799,0.201227 0.03799,0.530509 0,0.731736 -0.03799,0.201228 -0.06907,0.03659 -0.06907,-0.365868 z M 4.6692382,39.284942 c 0,-0.49189 0.02988,-0.693118 0.066399,-0.447173 0.036519,0.245945 0.036519,0.6484 0,0.894345 -0.036519,0.245945 -0.066399,0.04472 -0.066399,-0.447172 z M 4.4933064,36.497349 c -0.025659,-1.021503 0.015371,-1.261055 0.2304069,-1.34524 0.2023433,-0.07922 0.2222226,-0.05399 0.087733,0.111338 -0.095641,0.117569 -0.1993237,0.722926 -0.230407,1.345239 l -0.056515,1.131478 z m 39.6561096,1.082534 c 0,-0.04472 0.932413,-0.55798 2.072029,-1.140584 1.139616,-0.582604 2.07203,-1.022693 2.07203,-0.977976 0,0.04472 -0.932414,0.557981 -2.07203,1.140584 -1.139616,0.582604 -2.072029,1.022693 -2.072029,0.977976 z M 6.706787,34.182567 c 0.1591314,-0.147419 3.947337,-2.051873 4.072115,-2.047185 0.157948,0.0059 -3.8586092,2.108708 -4.0278931,2.108708 -0.060848,0 -0.080748,-0.02769 -0.044222,-0.06152 z m 44.207188,-0.173419 c 0.170164,-0.139086 0.37936,-0.252883 0.464878,-0.252883 0.202508,0 0.112086,0.07511 -0.375802,0.312161 -0.375717,0.182551 -0.380803,0.179167 -0.08908,-0.05928 z m 0.726624,-0.330923 c 0,-0.04472 0.645516,-0.412054 1.434481,-0.816304 0.788965,-0.404251 1.434482,-0.698414 1.434482,-0.653697 0,0.04472 -0.645517,0.412054 -1.434482,0.816305 -0.788965,0.40425 -1.434481,0.698413 -1.434481,0.653696 z M 13.865913,30.585407 c 0.920459,-0.482721 1.745286,-0.877675 1.832949,-0.877675 0.08766,0 -0.593716,0.394954 -1.514175,0.877675 -0.920459,0.482721 -1.745286,0.877674 -1.832949,0.877674 -0.08766,0 0.593716,-0.394953 1.514175,-0.877674 z m 43.353226,0.164935 c 0,-0.04472 0.932413,-0.55798 2.072029,-1.140584 1.139616,-0.582604 2.072029,-1.022693 2.072029,-0.977976 0,0.04472 -0.932413,0.55798 -2.072029,1.140584 -1.139616,0.582604 -2.072029,1.022693 -2.072029,0.977976 z m -38.57162,-2.522753 c 1.008122,-0.52737 1.904673,-0.958855 1.992336,-0.958855 0.08766,0 -0.66544,0.431485 -1.673562,0.958855 -1.008122,0.52737 -1.904673,0.958855 -1.992336,0.958855 -0.08766,0 0.66544,-0.431485 1.673562,-0.958855 z M 63.754,27.336874 c 0,-0.04472 0.573792,-0.375632 1.275095,-0.735366 0.701302,-0.359734 1.275094,-0.617476 1.275094,-0.572758 0,0.04472 -0.573792,0.375632 -1.275094,0.735366 C 64.327792,27.12385 63.754,27.381591 63.754,27.336874 Z M 22.791577,26.194987 c 0.745134,-0.393471 1.426513,-0.715403 1.514176,-0.715403 0.08766,0 -0.450268,0.321932 -1.195402,0.715403 -0.745133,0.393472 -1.426512,0.715404 -1.514175,0.715404 -0.08766,0 0.450268,-0.321932 1.195401,-0.715404 z m 45.176791,-1.129286 c 0.170165,-0.139085 0.37936,-0.252883 0.464879,-0.252883 0.202507,0 0.112086,0.07511 -0.375802,0.312161 -0.375718,0.182551 -0.380803,0.179167 -0.08908,-0.05928 z M 26.616862,24.324994 c 0.657471,-0.348886 1.267125,-0.634338 1.354788,-0.634338 0.08766,0 -0.378544,0.285452 -1.036014,0.634338 -0.657471,0.348886 -1.267126,0.634338 -1.354789,0.634338 -0.08766,0 0.378544,-0.285452 1.036015,-0.634338 z m 42.07813,0.409784 c 0,-0.04472 0.645517,-0.412054 1.434482,-0.816304 0.788965,-0.404251 1.434482,-0.698414 1.434482,-0.653697 0,0.04472 -0.645517,0.412055 -1.434482,0.816305 -0.788965,0.40425 -1.434482,0.698413 -1.434482,0.653696 z M 30.123373,22.617609 c 0.394482,-0.215504 0.788965,-0.391825 0.876628,-0.391825 0.08766,0 -0.163372,0.176321 -0.557854,0.391825 -0.394483,0.215503 -0.788965,0.391824 -0.876628,0.391824 -0.08766,0 0.163371,-0.176321 0.557854,-0.391824 z m 42.237517,0.165324 c 0,-0.04472 0.788965,-0.484981 1.753255,-0.978365 0.964291,-0.493384 1.753256,-0.860475 1.753256,-0.815757 0,0.04472 -0.788965,0.484981 -1.753256,0.978365 -0.96429,0.493384 -1.753255,0.860475 -1.753255,0.815757 z M 33.470497,20.991527 c 0.569808,-0.304341 1.107739,-0.553348 1.195401,-0.553348 0.08766,0 -0.306819,0.249007 -0.876627,0.553348 -0.569808,0.304342 -1.107739,0.553349 -1.195402,0.553349 -0.08766,0 0.30682,-0.249007 0.876628,-0.553349 z M 76.664335,20.50621 c 0,-0.04472 0.860689,-0.521474 1.912642,-1.05946 1.051954,-0.537985 1.912643,-0.941569 1.912643,-0.896851 0,0.04472 -0.860689,0.521474 -1.912643,1.059459 -1.051953,0.537986 -1.912642,0.941569 -1.912642,0.896852 z M 36.33946,19.609358 c 0.657471,-0.348885 1.267126,-0.634337 1.354789,-0.634337 0.08766,0 -0.378544,0.285452 -1.036015,0.634337 -0.657471,0.348886 -1.267126,0.634338 -1.354788,0.634338 -0.08766,0 0.378543,-0.285452 1.036014,-0.634338 z m 3.187737,-1.544777 c 0.569808,-0.304342 1.107739,-0.553349 1.195402,-0.553349 0.08766,0 -0.30682,0.249007 -0.876628,0.553349 -0.569808,0.304342 -1.107739,0.553349 -1.195401,0.553349 -0.08766,0 0.306819,-0.249007 0.876627,-0.553349 z m 41.12181,0.328846 c 0,-0.04472 0.573792,-0.375632 1.275094,-0.735366 0.701303,-0.359734 1.275095,-0.617475 1.275095,-0.572758 0,0.04472 -0.573792,0.375632 -1.275095,0.735366 -0.701302,0.359734 -1.275094,0.617475 -1.275094,0.572758 z M 42.236774,16.763716 c 0.394482,-0.215503 0.788965,-0.391824 0.876628,-0.391824 0.08766,0 -0.163372,0.176321 -0.557854,0.391824 -0.394483,0.215504 -0.788965,0.391825 -0.876628,0.391825 -0.08766,0 0.163372,-0.176321 0.557854,-0.391825 z m 41.440583,0.0041 c 0,-0.04472 0.502069,-0.339252 1.115708,-0.654521 0.613639,-0.31527 1.115708,-0.536631 1.115708,-0.491913 0,0.04472 -0.502069,0.339251 -1.115708,0.654521 -0.613639,0.315269 -1.115708,0.53663 -1.115708,0.491913 z M 44.627577,15.62547 c 0.569808,-0.304342 1.107739,-0.553349 1.195401,-0.553349 0.08766,0 -0.306819,0.249007 -0.876627,0.553349 -0.569808,0.304342 -1.107739,0.553349 -1.195402,0.553349 -0.08766,0 0.30682,-0.249007 0.876628,-0.553349 z m 41.520276,-0.193186 c 0.218547,-0.222242 2.749323,-1.594993 2.55019,-1.383282 -0.08766,0.0932 -0.73318,0.479034 -1.434482,0.857409 -0.701302,0.378375 -1.203371,0.615017 -1.115708,0.525873 z M 47.177767,14.405898 c 0.482145,-0.259865 0.948351,-0.472481 1.036014,-0.472481 0.08766,0 -0.235095,0.212616 -0.717241,0.472481 -0.482145,0.259865 -0.948352,0.472482 -1.036014,0.472482 -0.08766,0 0.235095,-0.212617 0.717241,-0.472482 z m 42.066179,-0.783642 0.386517,-0.317644 -0.625597,-0.336515 c -0.344078,-0.185083 -0.553873,-0.339475 -0.46621,-0.343094 0.299864,-0.01238 1.21134,0.647384 1.114721,0.806877 -0.05305,0.08758 -0.253845,0.237707 -0.446204,0.333625 -0.312555,0.155852 -0.308645,0.140621 0.03677,-0.143249 z M 49.249796,13.43025 c 0.306819,-0.171372 0.629578,-0.311585 0.717241,-0.311585 0.08766,0 -0.09165,0.140213 -0.398468,0.311585 -0.306819,0.171371 -0.629578,0.311584 -0.71724,0.311584 -0.08766,0 0.09165,-0.140213 0.398467,-0.311584 z m 2.550189,-1.219561 c 0.394483,-0.215504 0.788965,-0.391825 0.876628,-0.391825 0.08766,0 -0.163371,0.176321 -0.557854,0.391825 -0.394482,0.215503 -0.788965,0.391824 -0.876628,0.391824 -0.08766,0 0.163372,-0.176321 0.557854,-0.391824 z m 34.905722,-0.325217 c -0.394482,-0.215503 -0.645517,-0.391824 -0.557854,-0.391824 0.08766,0 0.482145,0.176321 0.876628,0.391824 0.394482,0.215504 0.645517,0.391825 0.557854,0.391825 -0.08766,0 -0.482145,-0.176321 -0.876628,-0.391825 z m -33.311853,-0.40652 c 0.30682,-0.171372 0.629578,-0.311585 0.717241,-0.311585 0.08766,0 -0.09165,0.140213 -0.398467,0.311585 -0.30682,0.171372 -0.629578,0.311585 -0.717241,0.311585 -0.08766,0 0.09165,-0.140213 0.398467,-0.311585 z m 31.239824,-0.569128 c -0.219157,-0.127814 -0.326743,-0.232388 -0.23908,-0.232388 0.08766,0 0.338697,0.104574 0.557854,0.232388 0.219157,0.127813 0.326743,0.232388 0.23908,0.232388 -0.08766,0 -0.338697,-0.104575 -0.557854,-0.232388 z M 55.62527,10.421999 c 0.219157,-0.127813 0.470191,-0.232388 0.557854,-0.232388 0.08766,0 -0.01992,0.104575 -0.23908,0.232388 -0.219157,0.127814 -0.470191,0.232388 -0.557854,0.232388 -0.08766,0 0.01992,-0.104574 0.23908,-0.232388 z m 27.733313,-0.0813 c -0.131494,-0.0867 -0.167356,-0.157628 -0.07969,-0.157628 0.08766,0 0.266973,0.07093 0.398467,0.157628 0.131494,0.0867 0.167356,0.157628 0.07969,0.157628 -0.08766,0 -0.266973,-0.07093 -0.398467,-0.157628 z M 57.059752,9.7715667 c 0.219157,-0.1278134 0.470191,-0.232388 0.557854,-0.232388 0.08766,0 -0.01992,0.1045746 -0.239081,0.232388 -0.219156,0.1278134 -0.470191,0.2323883 -0.557854,0.2323883 -0.08766,0 0.01992,-0.1045749 0.239081,-0.2323883 z m 25.183123,0.081304 c -0.131494,-0.086695 -0.167356,-0.1576282 -0.07969,-0.1576282 0.08766,0 0.266973,0.070933 0.398467,0.1576282 0.131494,0.086695 0.167356,0.1576283 0.07969,0.1576283 -0.08766,0 -0.266973,-0.070933 -0.398467,-0.1576283 z M 81.286554,9.4463505 c -0.219157,-0.1278134 -0.326743,-0.232388 -0.23908,-0.232388 0.08766,0 0.338697,0.1045746 0.557854,0.232388 0.219157,0.1278134 0.326743,0.232388 0.23908,0.232388 -0.08766,0 -0.338697,-0.1045746 -0.557854,-0.232388 z M 58.65362,9.0398302 c 0.30682,-0.1713716 0.629578,-0.3115847 0.717241,-0.3115847 0.08766,0 -0.09165,0.1402131 -0.398467,0.3115847 -0.30682,0.1713715 -0.629578,0.3115846 -0.717241,0.3115846 -0.08766,0 0.09165,-0.1402131 0.398467,-0.3115846 z m 21.676613,0 C 80.198739,8.9531347 80.162877,8.882202 80.250539,8.882202 c 0.08766,0 0.266973,0.070933 0.398468,0.1576282 0.131494,0.086695 0.167356,0.1576281 0.07969,0.1576281 -0.08766,0 -0.266973,-0.070933 -0.398467,-0.1576281 z M 79.055138,8.5520058 c -0.131494,-0.086695 -0.167356,-0.1576282 -0.07969,-0.1576282 0.08766,0 0.266973,0.070933 0.398467,0.1576282 0.131494,0.086695 0.167356,0.1576282 0.07969,0.1576282 -0.08766,0 -0.266973,-0.070933 -0.398467,-0.1576282 z M 60.247489,8.3080936 c 0.219157,-0.1278134 0.470191,-0.232388 0.557854,-0.232388 0.08766,0 -0.01992,0.1045746 -0.23908,0.232388 -0.219157,0.1278134 -0.470192,0.232388 -0.557854,0.232388 -0.08766,0 0.01992,-0.1045746 0.23908,-0.232388 z M 77.540963,7.9771555 c -0.398566,-0.195853 -0.411831,-0.2184258 -0.07969,-0.1356044 0.451623,0.1126161 0.95927,0.376588 0.717241,0.3729595 -0.08766,-0.00131 -0.374559,-0.1081241 -0.637547,-0.2373551 z M 61.363197,7.8202692 c 0.219157,-0.1278134 0.470191,-0.232388 0.557854,-0.232388 0.08766,0 -0.01992,0.1045746 -0.23908,0.232388 -0.219157,0.1278134 -0.470192,0.232388 -0.557854,0.232388 -0.08766,0 0.01992,-0.1045746 0.23908,-0.232388 z m 1.275095,-0.5691284 c 0.131494,-0.086696 0.310804,-0.1576282 0.398467,-0.1576282 0.08766,0 0.0518,0.070933 -0.07969,0.1576282 -0.131494,0.086696 -0.310804,0.1576281 -0.398467,0.1576281 -0.08766,0 -0.0518,-0.070933 0.07969,-0.1576281 z m 12.671255,0 c -0.200929,-0.088087 -0.23039,-0.1397502 -0.07969,-0.1397502 0.131495,0 0.382529,0.062888 0.557854,0.1397502 0.20093,0.088087 0.230391,0.1397502 0.07969,0.1397502 -0.131494,0 -0.382529,-0.062888 -0.557854,-0.1397502 z M 63.594613,6.8446205 c 0.219157,-0.1278134 0.470191,-0.232388 0.557854,-0.232388 0.08766,0 -0.01992,0.1045746 -0.23908,0.232388 -0.219157,0.1278134 -0.470192,0.232388 -0.557854,0.232388 -0.08766,0 0.01992,-0.1045746 0.23908,-0.232388 z M 73.6061,6.6522365 c 0.115057,-0.046973 0.252528,-0.041196 0.305491,0.012837 0.05296,0.054033 -0.04117,0.092466 -0.209195,0.085405 -0.185677,-0.0078 -0.223444,-0.046334 -0.0963,-0.098242 z M 64.550934,6.4381002 c 0.131494,-0.086696 0.310804,-0.1576282 0.398467,-0.1576282 0.08766,0 0.0518,0.070933 -0.07969,0.1576282 -0.131494,0.086695 -0.310805,0.1576281 -0.398467,0.1576281 -0.08766,0 -0.0518,-0.070933 0.07969,-0.1576281 z m 0.796934,-0.3252163 c 0.131494,-0.086696 0.310805,-0.1576282 0.398467,-0.1576282 0.08766,0 0.0518,0.070933 -0.07969,0.1576282 -0.131494,0.086696 -0.310804,0.1576282 -0.398467,0.1576282 -0.08766,0 -0.0518,-0.070933 0.07969,-0.1576282 z m 6.664363,0.051528 c 0.115058,-0.046973 0.252529,-0.041196 0.305492,0.012837 0.05296,0.054033 -0.04117,0.092466 -0.209195,0.085405 -0.185677,-0.0078 -0.223445,-0.046334 -0.0963,-0.098242 z M 66.144803,5.8151016 c 0.131494,-0.082887 0.41839,-0.1996351 0.637547,-0.259441 0.276931,-0.075572 0.325546,-0.062772 0.159387,0.041965 -0.131494,0.082887 -0.418391,0.1996351 -0.637548,0.259441 -0.276931,0.075572 -0.325545,0.062772 -0.159386,-0.041965 z m 4.75172,0.024094 c 0.115058,-0.046973 0.252529,-0.041196 0.305492,0.012837 0.05296,0.054033 -0.04118,0.092466 -0.209195,0.085405 -0.185677,-0.0078 -0.223445,-0.046334 -0.0963,-0.098242 z M 69.890394,5.6250595 c -0.20093,-0.088087 -0.230391,-0.1397502 -0.07969,-0.1397502 0.131494,0 0.382529,0.062888 0.557854,0.1397502 0.20093,0.088087 0.230391,0.1397502 0.07969,0.1397502 -0.131494,0 -0.382529,-0.062888 -0.557854,-0.1397502 z M 67.868173,5.1887634 c 0.115057,-0.046973 0.252529,-0.041196 0.305491,0.012837 0.05296,0.054033 -0.04117,0.092466 -0.209195,0.085405 -0.185676,-0.0078 -0.223444,-0.046334 -0.0963,-0.098242 z m 0.627586,0.00339 c 0.109578,-0.04511 0.288888,-0.04511 0.398467,0 0.109578,0.045109 0.01992,0.082017 -0.199234,0.082017 -0.219157,0 -0.308812,-0.036908 -0.199233,-0.082017 z"
       id="path6" /><path
       style="fill:#2f75a7"
       d="M 9.5018404,29.325194 C 9.3484934,24.79234 9.0812956,15.364386 9.0828627,14.541757 9.08424,13.81877 9.1160125,13.765248 9.7617018,13.398208 10.963527,12.715034 14.663066,11.185946 17.770891,10.08786 22.858198,8.290365 29.092284,6.58455 34.904979,5.3995089 37.361876,4.8986183 38.74446,4.6714274 43.432175,3.9982915 47.148287,3.4646738 53.957729,3.2891029 56.581591,3.6592543 c 1.740454,0.2455279 3.066763,0.628679 2.989956,0.8637547 -0.05658,0.1731694 -2.43281,1.4814473 -11.357766,6.25323 -2.103906,1.124866 -4.937008,2.64782 -6.295781,3.384341 -2.465281,1.336303 -4.079992,2.206951 -7.092715,3.824372 -0.876628,0.47063 -2.024213,1.092446 -2.55019,1.381813 -0.525976,0.289367 -3.215629,1.767637 -5.977007,3.285044 -6.521958,3.583886 -11.025552,6.164914 -15.450462,8.854721 -0.564273,0.34301 -1.0765631,0.623654 -1.1384219,0.623654 -0.061859,0 -0.1551725,-1.262246 -0.2073637,-2.80499 z"
       id="path5" /><path
       style="fill:#0f6a20"
       d="m 19.805212,73.229388 c -0.436803,-0.567551 -2.85684,-4.894198 -3.720888,-6.652366 -1.116617,-2.272092 -1.860663,-4.159838 -2.466486,-6.25781 -0.481336,-1.666871 -1.031397,-4.572612 -0.921109,-4.865828 0.07053,-0.18751 4.30773,-2.391228 9.058834,-4.711392 1.139616,-0.556523 3.14789,-1.538571 4.462832,-2.18233 1.314941,-0.643759 5.992695,-2.924426 10.395007,-5.068149 7.887947,-3.841066 8.79785,-4.331318 25.467036,-13.721549 2.191569,-1.234574 5.670187,-3.193464 7.730262,-4.353088 2.060075,-1.159624 5.144211,-2.896214 6.853635,-3.859088 14.098265,-7.941186 17.958004,-10.078836 18.198338,-10.078836 0.586795,0 1.723583,2.747742 2.388218,5.772589 0.241426,1.098764 0.342273,2.294199 0.404671,4.796939 0.09458,3.793615 -0.170467,5.999408 -1.04534,8.699535 -0.873855,2.696986 -0.68463,2.465853 -3.685933,4.502232 -1.76193,1.195467 -2.744217,1.963459 -2.805669,2.193587 -0.10307,0.385981 -0.423943,0.577017 -0.752884,0.44824 -0.114914,-0.04499 -1.029396,0.421124 -2.032182,1.035805 -17.848383,10.94057 -42.293562,23.879145 -58.80405,31.124361 -2.985018,1.309901 -8.140563,3.380408 -8.417187,3.380408 -0.08287,0 -0.221066,-0.09147 -0.307105,-0.20326 z"
       id="path4" /><path
       style="fill:#4a3708"
       d="m 51.468156,95.737423 c -5.293122,-2.749177 -12.160351,-7.023436 -11.82836,-7.362137 0.07276,-0.07424 2.282712,-1.021203 4.910996,-2.104373 22.089422,-9.103511 35.905535,-16.439257 42.945789,-22.802315 0.571595,-0.516614 1.062692,-0.867594 1.091326,-0.779957 0.09248,0.283063 -1.539306,3.33659 -2.974401,5.565919 -6.270552,9.740903 -15.973913,19.690345 -24.318224,24.934941 -2.570444,1.615585 -6.73828,3.658717 -7.463508,3.658717 -0.123723,0 -1.187351,-0.499858 -2.363618,-1.110795 z M 19.674151,50.107352 c 0.170164,-0.139085 0.37936,-0.252882 0.464878,-0.252882 0.202508,0 0.112086,0.07511 -0.375802,0.31216 -0.375717,0.182552 -0.380803,0.179167 -0.08908,-0.05928 z m 4.233134,-2.121684 c 0,-0.110156 1.294633,-0.767199 1.366737,-0.693637 0.03341,0.03409 -0.260433,0.221176 -0.652993,0.415751 -0.392559,0.194574 -0.713744,0.319623 -0.713744,0.277886 z m 2.14234,-1.130478 c 0.170165,-0.139086 0.37936,-0.252883 0.464878,-0.252883 0.202508,0 0.112087,0.07511 -0.375802,0.312161 -0.375717,0.182551 -0.380803,0.179167 -0.08908,-0.05928 z M 15.300395,30.098774 c 0,-0.110156 1.294632,-0.767199 1.366737,-0.693637 0.03341,0.03409 -0.260434,0.221176 -0.652993,0.415751 -0.392559,0.194574 -0.713744,0.319623 -0.713744,0.277886 z m 4.622219,-2.359009 c 0.832796,-0.438087 1.585899,-0.796521 1.673562,-0.796521 0.08766,0 -0.521992,0.358434 -1.354788,0.796521 -0.832797,0.438086 -1.5859,0.79652 -1.673562,0.79652 -0.08766,0 0.521992,-0.358434 1.354788,-0.79652 z m 3.838567,-1.847968 c 0.03653,-0.0326 0.245721,-0.1464 0.464878,-0.252882 0.375718,-0.182552 0.380803,-0.179167 0.08908,0.05928 -0.253903,0.207529 -0.772686,0.388841 -0.553955,0.193604 z M 68.83219,24.497253 c 0.206953,-0.184177 0.45201,-0.334867 0.544572,-0.334867 0.196001,0 0.186638,0.0081 -0.442689,0.384082 l -0.478161,0.285652 z m 6.195773,-3.281991 c 0.108118,-0.111129 0.236728,-0.161091 0.285801,-0.111026 0.04907,0.05007 -0.03939,0.140989 -0.196577,0.202053 -0.227158,0.08825 -0.245465,0.06957 -0.08922,-0.09103 z m 2.27392,-1.197838 c 0,-0.111267 0.975911,-0.60489 1.048825,-0.530503 0.03458,0.03528 -0.187254,0.185842 -0.492973,0.334575 -0.305719,0.148734 -0.555852,0.236901 -0.555852,0.195928 z m 1.504792,-0.805616 c 0.170164,-0.139085 0.37936,-0.252882 0.464878,-0.252882 0.202508,0 0.112086,0.07511 -0.375802,0.312161 -0.375717,0.182551 -0.380803,0.179166 -0.08908,-0.05928 z m 3.754974,-2.041572 c 0.131494,-0.08669 0.310804,-0.157628 0.398467,-0.157628 0.08766,0 0.0518,0.07093 -0.07969,0.157628 -0.131495,0.0867 -0.310805,0.157629 -0.398468,0.157629 -0.08766,0 -0.0518,-0.07093 0.07969,-0.157629 z m 1.434482,-0.730764 c 0,-0.109453 1.613352,-0.929642 1.684956,-0.856591 0.03266,0.03332 -0.333087,0.256971 -0.812783,0.49699 -0.479695,0.24002 -0.872173,0.40184 -0.872173,0.359601 z"
       id="path3" /><path
       style="fill:#0f294e"
       d="M 28.131037,89.961244 C 24.915527,87.226996 20.71223,82.425638 17.389308,77.69114 c -0.64724,-0.922187 -1.11306,-1.733682 -1.035156,-1.803323 0.07791,-0.06964 1.038196,-0.439446 2.13398,-0.821791 9.880285,-3.44746 20.921545,-7.54981 26.066684,-9.685004 8.8515,-3.673306 16.591956,-7.676353 24.060483,-12.443096 5.088433,-3.247662 13.00913,-8.839047 18.644258,-13.16137 1.312739,-1.006913 2.478255,-1.866555 2.590036,-1.910316 0.265329,-0.103874 0.260277,0.249747 -0.04418,3.092459 -0.767887,7.169744 -2.338353,15.974931 -3.513486,19.699185 -0.789377,2.50171 -0.176963,2.025514 -7.57892,5.893146 -10.606393,5.541999 -48.428269,24.768651 -48.720659,24.767021 -0.147093,-8.2e-4 -0.984683,-0.611383 -1.861311,-1.356807 z M 7.1795068,56.135924 C 6.9531146,55.528433 6.3319141,52.445679 6.4181611,52.357689 c 0.042731,-0.04359 0.1254399,0.198551 0.1837987,0.538101 0.1261734,0.734115 0.7455552,3.360032 0.8095063,3.431964 0.024578,0.02764 1.3434346,-0.61301 2.9307929,-1.423677 1.587359,-0.810668 2.886107,-1.437355 2.886107,-1.392638 0,0.082 -5.6613281,3.009964 -5.8198879,3.009964 -0.046924,0 -0.1499608,-0.173466 -0.2289713,-0.385479 z m 6.5403022,-2.933433 c 0.159732,-0.160545 5.788092,-3.036045 5.644951,-2.883976 -0.18445,0.195955 -5.400235,2.950725 -5.586798,2.950725 -0.06851,0 -0.09468,-0.03004 -0.05815,-0.06675 z M 6.2464165,51.724463 c 0.00325,-0.268303 0.03897,-0.358378 0.079381,-0.200165 0.040411,0.158212 0.037754,0.377733 -0.00591,0.487824 -0.04366,0.110091 -0.076724,-0.01935 -0.073475,-0.287659 z M 6.0870296,50.748814 c 0.00325,-0.268303 0.03897,-0.358377 0.079381,-0.200165 0.040412,0.158212 0.037754,0.377733 -0.00591,0.487824 -0.04366,0.110091 -0.076724,-0.01935 -0.073475,-0.287659 z M 5.9335487,49.691862 c 0,-0.313021 0.032801,-0.441075 0.072891,-0.284565 0.04009,0.156511 0.04009,0.412618 0,0.569129 -0.04009,0.15651 -0.072891,0.02846 -0.072891,-0.284564 z m 14.3211213,0.09989 c 0.162119,-0.153089 3.652615,-1.882752 3.652615,-1.809998 0,0.09002 -3.436577,1.872711 -3.610114,1.872711 -0.0599,0 -0.07903,-0.02822 -0.0425,-0.06271 z M 5.6628031,47.979056 c -0.062185,-0.592411 -0.079592,-1.111259 -0.038683,-1.152995 0.040909,-0.04174 0.1252593,0.408816 0.1874443,1.001227 0.062185,0.592411 0.079592,1.111259 0.038683,1.152995 -0.040909,0.04174 -0.1252592,-0.408816 -0.1874443,-1.001227 z M 25.341767,47.188833 c 0,-0.03515 0.111311,-0.107484 0.247359,-0.160746 0.141842,-0.05553 0.205819,-0.02827 0.14998,0.06391 -0.0936,0.154511 -0.397339,0.228537 -0.397339,0.09684 z M 5.3434044,45.377964 c -0.06259,-0.681432 -0.080048,-1.273402 -0.038795,-1.315489 0.041253,-0.04209 0.1262159,0.481014 0.1888063,1.162446 0.06259,0.681432 0.080048,1.273401 0.038795,1.315488 -0.041253,0.04209 -0.1262159,-0.481014 -0.1888063,-1.162445 z m 21.4328446,1.052955 c 0.407349,-0.283528 1.434482,-0.814617 1.434482,-0.741713 0,0.09714 -1.383143,0.913641 -1.542558,0.910611 -0.07205,-0.0014 -0.02342,-0.07737 0.108076,-0.168898 z m 2.311109,-1.227125 c 0.438314,-0.227975 3.235553,-1.682035 6.216088,-3.231246 2.980534,-1.54921 6.028808,-3.134256 6.773941,-3.522323 1.631052,-0.849456 2.366813,-1.186333 2.151723,-0.985194 -0.08766,0.08198 -3.422833,1.836903 -7.411489,3.899836 -3.988656,2.062934 -7.467274,3.865313 -7.730263,4.005288 -0.262988,0.139975 -0.549884,0.253068 -0.637547,0.251319 -0.08766,-0.0018 0.199233,-0.189706 0.637547,-0.41768 z M 5.139831,43.268841 c 0.00177,-0.357738 0.034409,-0.484939 0.072533,-0.282669 0.038124,0.202271 0.036677,0.494965 -0.00322,0.650433 -0.039893,0.155467 -0.071086,-0.01003 -0.069317,-0.367764 z M 4.9896385,41.642759 c 8.945e-4,-0.536606 0.03065,-0.736524 0.066123,-0.44426 0.035473,0.292264 0.034741,0.731306 -0.00163,0.975649 -0.036368,0.244343 -0.065392,0.0052 -0.064497,-0.531389 z M 4.8302516,39.691462 c 8.946e-4,-0.536607 0.03065,-0.736524 0.066124,-0.44426 0.035473,0.292263 0.034741,0.731305 -0.00163,0.975648 -0.036368,0.244343 -0.065392,0.0052 -0.064497,-0.531388 z m -0.1411858,-2.764338 0.012103,-1.626082 2.5501897,-1.283675 c 4.3689605,-2.199179 8.1259495,-4.014513 7.9618065,-3.847053 -0.08649,0.08824 -2.451207,1.290064 -5.2549308,2.670728 l -5.0976785,2.510296 -0.091797,1.600934 -0.091797,1.600933 z M 44.46819,37.268216 c 0,-0.109066 6.901883,-3.679539 6.972819,-3.607169 0.03161,0.03225 -1.524346,0.874712 -3.457675,1.872145 -1.933329,0.997433 -3.515144,1.778194 -3.515144,1.735024 z m 7.252102,-3.792852 c 0.08766,-0.08856 1.737317,-0.977886 3.665898,-1.976281 1.928581,-0.998395 3.376607,-1.710828 3.217837,-1.583185 -0.367682,0.295598 -7.097615,3.775536 -6.883735,3.559466 z M 17.507791,28.957737 c 0.468934,-0.222712 0.899279,-0.401625 0.956321,-0.397584 0.19848,0.01406 -1.332392,0.791036 -1.569848,0.796756 -0.131494,0.0032 0.144593,-0.176459 0.613527,-0.399172 z m 42.115433,0.352833 c 0.216203,-0.179952 6.731832,-3.532757 6.601272,-3.396876 -0.193395,0.201278 -6.347294,3.452152 -6.534918,3.452152 -0.07302,0 -0.10288,-0.02487 -0.06635,-0.05528 z M 21.994643,26.846392 c 0,-0.109453 1.613352,-0.929642 1.684956,-0.856591 0.03267,0.03333 -0.333087,0.256971 -0.812782,0.49699 -0.479696,0.24002 -0.872174,0.40184 -0.872174,0.359601 z m 45.345561,-1.624165 c 0.525977,-0.309194 1.028045,-0.562171 1.115708,-0.562171 0.08766,0 -0.270958,0.252977 -0.796934,0.562171 -0.525977,0.309194 -1.028045,0.562171 -1.115708,0.562171 -0.08766,0 0.270957,-0.252977 0.796934,-0.562171 z m -42.787399,0.341296 c 0.152036,-0.155109 4.852201,-2.491415 5.251794,-2.610504 0.219157,-0.06531 -0.713256,0.443469 -2.072029,1.130629 -2.3739,1.200532 -3.352275,1.655871 -3.179765,1.479875 z m 45.271178,-1.625062 c 0.163019,-0.150513 1.421199,-0.749883 1.421199,-0.67703 0,0.09243 -1.202869,0.738347 -1.375003,0.738347 -0.06193,0 -0.08272,-0.02759 -0.0462,-0.06132 z m 2.37752,-1.234117 c 0.369966,-0.281539 2.709577,-1.48281 2.709577,-1.39123 0,0.04472 -0.591724,0.392449 -1.314942,0.772737 -1.427804,0.75078 -1.764952,0.900298 -1.394635,0.618493 z m -41.59997,-0.100161 c 0,-0.133074 4.345085,-2.193506 4.434133,-2.102658 0.04501,0.04592 0.04298,0.08348 -0.0045,0.08348 -0.04748,0 -1.063574,0.472608 -2.25798,1.05024 -1.194406,0.577632 -2.171648,1.013653 -2.171648,0.968936 z m 44.80099,-1.585174 c 0.27611,-0.223772 1.568264,-0.870431 1.493855,-0.747601 -0.09857,0.162711 -1.252313,0.801423 -1.447659,0.801423 -0.06193,0 -0.08272,-0.02422 -0.0462,-0.05382 z M 37.13653,19.393317 c 1.981258,-0.997872 14.737,-7.102659 15.75378,-7.539622 0.293623,-0.126185 0.486016,-0.152145 0.428907,-0.05787 -0.05696,0.09403 -0.163597,0.170955 -0.236972,0.170955 -0.129612,0 -10.58731,4.964533 -15.372238,7.297589 -1.306275,0.636918 -2.417998,1.152282 -2.470497,1.145253 -0.0525,-0.007 0.801161,-0.464365 1.89702,-1.016301 z m 42.556155,-0.660906 c 0,-0.03515 0.111312,-0.107484 0.247359,-0.160746 0.141842,-0.05553 0.20582,-0.02827 0.14998,0.06391 -0.0936,0.154511 -0.397339,0.228537 -0.397339,0.09684 z m 0.637548,-0.340273 c 0,-0.09606 1.853102,-1.060795 2.027637,-1.0556 0.110511,0.0033 -1.864138,1.134563 -1.980391,1.134563 -0.02598,0 -0.04725,-0.03553 -0.04725,-0.07896 z M 83.039809,16.9305 c 0,-0.04242 0.233104,-0.192387 0.518008,-0.333259 l 0.518007,-0.256132 -0.376278,0.33326 c -0.352563,0.312256 -0.659737,0.431511 -0.659737,0.256131 z m 3.187738,-1.708437 c 0.131494,-0.0966 0.836383,-0.520977 1.566419,-0.943069 0.730037,-0.422092 1.328655,-0.837283 1.330262,-0.922647 C 89.129667,13.067515 82.133355,9.8547928 78.852083,8.6393555 78.170595,8.3869211 77.64164,8.1511786 77.676629,8.1154833 77.907526,7.879919 89.415284,12.931481 89.415284,13.268403 c 0,0.224257 -0.589986,0.630346 -1.992336,1.371328 -0.788965,0.416878 -1.326896,0.678928 -1.195401,0.582332 z M 53.927609,11.377527 c 1.329756,-0.735112 11.266547,-5.150448 11.365038,-5.049967 0.03242,0.033075 -0.42603,0.2663597 -1.018778,0.5184097 -1.496833,0.6364881 -7.968698,3.5539323 -9.393559,4.2345123 -1.196264,0.571391 -1.775874,0.752109 -0.952701,0.297045 z M 74.63288,7.2072636 c -1.42412,-0.4536673 -2.561082,-0.8536475 -2.526582,-0.888845 0.07279,-0.074258 4.839091,1.3912971 5.195585,1.5975507 0.441093,0.2551998 -0.06517,0.1207715 -2.669003,-0.7087057 z M 65.666642,6.1403179 c 0.131494,-0.082887 0.418391,-0.1996352 0.637547,-0.2594411 0.276932,-0.075572 0.325546,-0.062772 0.159387,0.041965 -0.131494,0.082887 -0.41839,0.1996351 -0.637547,0.259441 -0.276931,0.075572 -0.325546,0.062772 -0.159387,-0.041965 z M 70.015863,5.8246828 C 69.208244,5.58899 68.577515,5.3654925 68.614243,5.3280217 c 0.06494,-0.066249 3.122506,0.76723 3.255204,0.8873528 0.159372,0.1442682 -0.48822,0.00777 -1.853584,-0.3906917 z M 66.80651,5.7211741 c 0.153867,-0.1752851 1.595079,-0.5947632 1.4991,-0.4363267 -0.04518,0.074579 -0.280879,0.1765121 -0.523775,0.2265177 -0.242897,0.050006 -0.585079,0.1442892 -0.760405,0.2095192 -0.175325,0.06523 -0.272039,0.06536 -0.21492,2.898e-4 z"
       id="path2" /><path
       style="fill:#010101"
       d="M 7.286614,55.992926 C 7.2417341,55.791699 7.0183126,54.793288 6.7901219,53.774235 5.9330774,49.946852 4.7879355,40.215266 4.7828309,36.71598 l -0.00197,-1.349401 1.6337153,-0.784201 c 0.898545,-0.431311 4.2516458,-2.083522 7.4513368,-3.671581 11.242065,-5.579621 33.779074,-16.493509 39.448248,-19.103412 0.438313,-0.201786 1.227278,-0.569862 1.753255,-0.817948 4.505319,-2.1250101 10.404547,-4.7030076 12.056449,-5.2687402 l 1.209546,-0.4142371 1.416039,0.4136954 c 6.506606,1.9009032 10.217219,3.2127053 14.0076,4.9520659 2.485635,1.140628 5.281427,2.484071 5.391958,2.590962 0.07271,0.07031 -0.285914,0.384644 -0.796934,0.698519 -1.369658,0.841261 -9.296857,5.092476 -20.613403,11.0546 -1.358773,0.71587 -3.331185,1.758625 -4.383138,2.317233 -1.051954,0.558608 -3.849193,2.022259 -6.216088,3.252559 -2.366895,1.230299 -5.307582,2.766799 -6.534861,3.414445 -1.227279,0.647645 -4.167966,2.184167 -6.534861,3.414494 -2.366895,1.230326 -6.132409,3.188199 -8.36781,4.35083 -2.235401,1.16263 -5.857467,3.046437 -8.049036,4.186237 -8.10689,4.216263 -20.125002,10.406695 -20.2035723,10.406695 -0.0446,0 -0.1178107,-0.164641 -0.1626907,-0.365869 z"
       id="path1" /></g></svg>
